/* XPM */
static char *dd078d3d38114265a8a94344a7680204bh47sXzBn4vCF0ii[] = {
/* columns rows colors chars-per-pixel */
"64 64 37 1 ",
"  c None",
". c #3C321E",
"X c #3D321E",
"o c #3D331E",
"O c #3D321F",
"+ c #3D331F",
"@ c #202020",
"# c #212020",
"$ c #202120",
"% c #212120",
"& c #202021",
"* c #212021",
"= c #202121",
"- c gray13",
"; c #4A3C24",
": c #4B3C24",
"> c #4A3D24",
", c #4B3D24",
"< c #4A3C25",
"1 c #4B3C25",
"2 c #4A3D25",
"3 c #4B3D25",
"4 c #614E2E",
"5 c #604F2E",
"6 c #614F2E",
"7 c #604E2F",
"8 c #614E2F",
"9 c #604F2F",
"0 c #614F2F",
"q c #6E5A34",
"w c #6F5A34",
"e c #6E5B34",
"r c #6F5B34",
"t c #6E5A35",
"y c #6F5A35",
"u c #6E5B35",
"i c #6F5B35",
/* pixels */
"                                                                ",
"                                                                ",
"                                                                ",
"                                                                ",
"                             ---                                ",
"                         --=-rtt-=--                            ",
"                      -%-trttrtrtrtt----                        ",
"                   ---ttttrttttttttqtttt****                    ",
"               ----ttttrtttttttrttttttttrttt***                 ",
"            -=-tttttrttqtttttttttttttttruuttyuu*-**             ",
"         ---qtttttttttttrtrttttrrtttttttttttuuttruu****         ",
"     ----tttqttttrtttrttrrtttttttttttrrtttttuuwwuuuuuur----     ",
"   --ttttttttqtttwrttrttttttttttttttttttwrttttttuuuuttttrrt--   ",
"   -t----wttttrttttttttrtrtttqwtttttttttuutttwttuuttttt-=--t-   ",
"   -wtrqt-%%ttqrtttttttttttttttttrttrtttuuutttttttt&=--ttrtt-   ",
"   -tttttttt---ttttttttttttttttttttttrrtuuttwtt--&&tttrttttt-   ",
"   -tttttwttwtt---=tttttttqttrtttttrtttttttt-$-qwttttwtttttt-   ",
"   -tttttttttttrrtr---ttqttrtttttttttttt----tttttwtttttttwwt-   ",
"   -trtttttttwwttttttr---ttttttrrttt----tttqtttqttttttttttwt-   ",
"   -ttrtttttrtwrrttrrtttq----ttt=---ttrtttttqttrttttttttttwt-   ",
"   -ttt>,ttwwtttrtrtttttttttt---ttttttttttttttttwrwtrt,1>twt-   ",
"   -ttt>.,>>>wttttttttrttttttr-ttttttttttqwqrrtqtt>,>>..>trt-   ",
"   -ttt,..>..>>>tttttttrtttttt-tttttttrrtttttt,>>>+.>+w+>ttt-   ",
"   -ttt>.t,00...>>>ttttuttrttt-tttttttttrw>>,,....0>ttt+>ttt-   ",
"   -qtr>>tt>0000+++>>>>twtttut-ttttttt>>,,>.+.00008>ttw,>ttt-   ",
"   -ttt>>tt>0000998+.>.,>ttwrt-ttttt>>>+,..5000000,twt>.>ttr-   ",
"   -ttt,.,tq>0008988>tt.,wtttt-trttt,..tt,00000000>ttt>.>ttt-   ",
"   =ttt,.,qt>0008999>tt+>rttrt-rtttt,.ttt>0000000,ttt>0.>ttt-   ",
"   -ttt,.0>tw>00098>ttr+>ttttt-ttttt1.tttt,000000>ttt>7.,ttw-   ",
"   -ttt,.0,tt>00000>wtt,>tttwt-ttttt>>ttttt>0005,trt>00.,twq-   ",
"   -ttt,.0,ttt>000,ttt,.>ttttr-ttttw,.,tttt>5000>ttt,00.,ttt-   ",
"   -ttt,.00>tt>090,wtw>+,ttttt-ttttw,..,tttt>00>ttt>000.,ttt&   ",
"   -twt,.05,ttt,0,qtr:X+>rtttt-tttuu<++1ttttt>9>ttt>000.:twt-   ",
"   -ttt>.000,tt,,tttq:X.>ttttt%qrtuu>+8.>wttt>>ttt,9000.:ttt-   ",
"   -rtt>.000>ttt,twt:.0+>ttrwt-twwrr>.88+,tttt>tiw>9007.:qtt-   ",
"   -rrt>.0577,t,,tr,.00+>trttr-ttrtw>.989.>wttr>u,99077.:ttt-   ",
"   -ttt>.0000,q,ttt,+00+>ttttt-ttttt>.880.,ttttt>,89997.,tqt-   ",
"   -rtt>+0000,,ttt,.090+>ttttt-ttttt>+9800.,tttt>898007.,ttt%   ",
"   -twr,+00000>wt,.0098.>ttwtt-ttttt:+99000.>tttu188000.,ttt-   ",
"   -twt,.0000>ttq>.0988+>twttt-twrww:+00000,.>ttuu,8900;,ttt-   ",
"   -ttt>.0000,tt,.,7700.,qtttt%ttttt,.0000,w.,tttt,7777.:utq&   ",
"   -ttt>.000>ttt,.t,500.,ttttt-tttww,.0000>ww.>tttt1077;;utq&   ",
"   -ttt>.98>ttt,.tq,000.>ttttt-ttttw,.989>tttt.>tttt:70.>uuq-   ",
"   -ttt>.88>tt,.,ttt,00.,ttwtt-rtwtt,+999>ttt>0.,ttq:09.,utt-   ",
"   -ttt,.0>tqq;;,wtt,00.>ttttt-ttrrt>+99,wtwt>0.>uuut>8.>ttt-   ",
"   -wtt>.7>tq;.09>wwt,0.>twttt-qtttt>O98>ttr>000.,tttt>.1wtt-   ",
"   -tqt,.:tt<.909,ttt,0.>tqtwt-qtttt>.7>tttt>0000.:ttt>.>ttt-   ",
"   %ttq,.1tt1.9998>rtw,.>wqttt%qrttt>+8>ttt>000007.:ttw>>ttt-   ",
"   -ttt>>tt>.00000,wwr>+1ttttt-ttwwt1.>tttt>000000.,qtt.,ttt=   ",
"   -ttt>.tt,.00000,wrtt>>ttttq-ttttt>+>ttt>00000000.,t.+,ttt-   ",
"   -ttt>>.,..000009,tuu>,ttttt-twttt1>twtt>0000000...>>>>rtt-   ",
"   -tttwt>,>,.+.998,tru+,ttttt-twwww>.ttt>0000....,,>>ttrttt-   ",
"   -ttwtttwqw,>1+.+9,ww.:qtqtt-ttttw1.twt>0...>>,:ttqtrttrtt-   ",
"   &ttttttttwwtt>,>.>.+.,ttttt=ttttt1.t.>..,>,tttqtqtwtrrttt-   ",
"   --tttwtttqtttwtt>,>>.>ttttt-tttwt>++,>>wrtqttttttrrttrtt--   ",
"     ----ttttttttttrttt,;utttt&ttttt>>ttwtrrttttttttrtq-=--     ",
"         ---trttttttqttqttrttt-ttttttttttttwttrtttr----         ",
"            ---tttttwttttttrtt-ttttwtttwrttttrt----             ",
"               ----twttttttttt-ttttturwrtttt---                 ",
"                   ---ttttttrr-ttwtttttr----                    ",
"                      ---ttttt-ttttr---=                        ",
"                         ----t-t-=--                            ",
"                             ---                                ",
"                                                                "
};
