/* XPM */
static char *a74f4283b8c049048a0ddb7fef1b6262loFzfCSKWaGWAVmy[] = {
/* columns rows colors chars-per-pixel */
"64 64 122 2 ",
"   c None",
".  c #3B3A3E",
"X  c #3A3B3E",
"o  c #3B3B3E",
"O  c #3A3A3F",
"+  c #3B3A3F",
"@  c #3A3B3F",
"#  c #3B3B3F",
"$  c #525258",
"%  c #535258",
"&  c #525358",
"*  c #535358",
"=  c #525259",
"-  c #535259",
";  c #525359",
":  c #535359",
">  c #5C5A6E",
",  c #5D5A6E",
"<  c #5C5B6E",
"1  c #5D5B6E",
"2  c #5C5A6F",
"3  c #5D5A6F",
"4  c #5C5B6F",
"5  c #5D5B6F",
"6  c #747288",
"7  c #757288",
"8  c #747388",
"9  c #757388",
"0  c #747289",
"q  c #757289",
"w  c #747389",
"e  c #757389",
"r  c #5C5AB6",
"t  c #5D5AB6",
"y  c #5C5BB6",
"u  c #5D5BB6",
"i  c #5C5AB7",
"p  c #5D5AB7",
"a  c #5C5BB7",
"s  c #5D5BB7",
"d  c #6260B6",
"f  c #6360B6",
"g  c #6261B6",
"h  c #6361B6",
"j  c #6260B7",
"k  c #6360B7",
"l  c #6261B7",
"z  c #6361B7",
"x  c #6C6AB6",
"c  c #6D6AB6",
"v  c #6C6BB6",
"b  c #6D6BB6",
"n  c #6C6AB7",
"m  c #6D6AB7",
"M  c #6C6BB7",
"N  c #6D6BB7",
"B  c #7878B6",
"V  c #7978B6",
"C  c #7879B6",
"Z  c #7979B6",
"A  c #7878B7",
"S  c #7978B7",
"D  c #7879B7",
"F  c #7979B7",
"G  c #0060F6",
"H  c #0160F6",
"J  c #0061F6",
"K  c #0060F7",
"L  c #0160F7",
"P  c #0061F7",
"I  c #0161F7",
"U  c #807EB6",
"Y  c #817EB6",
"T  c #807FB6",
"R  c #817FB6",
"E  c #807EB7",
"W  c #817EB7",
"Q  c #807FB7",
"!  c #817FB7",
"~  c #609EFE",
"^  c #609FFE",
"/  c #609EFF",
"(  c #619EFF",
")  c #609FFF",
"_  c #8483B6",
"`  c #8583B6",
"'  c #8482B7",
"]  c #8583B7",
"[  c #9090B2",
"{  c #9190B2",
"}  c #9091B2",
"|  c #9191B2",
" . c #9090B3",
".. c #9190B3",
"X. c #9091B3",
"o. c #9191B3",
"O. c #8C8CC4",
"+. c #8D8CC4",
"@. c #8C8DC4",
"#. c #8D8DC4",
"$. c #8D8CC5",
"%. c #8D8DC5",
"&. c #9492DA",
"*. c #9592DA",
"=. c #9493DA",
"-. c #9593DA",
";. c #9492DB",
":. c #9592DB",
">. c #9493DB",
",. c #9593DB",
"<. c #A7C8FE",
"1. c #A7C9FE",
"2. c #A7C8FF",
"3. c #A6C9FF",
"4. c #A7C9FF",
"5. c #D2D2E2",
"6. c #D3D2E2",
"7. c #D2D3E2",
"8. c #D3D3E2",
"9. c #D3D2E3",
"0. c #D2D3E3",
"q. c #D3D3E3",
/* pixels */
"                                                                                                                                ",
"                                                                                                                                ",
"                                                                                                                                ",
"                                                                                                                                ",
"                                                                                                                                ",
"                                                                                                                                ",
"                                                                                                                                ",
"                                                                                                                                ",
"                                                      [                                                                         ",
"                                                      o.[                                                                       ",
"                                                      [ ,.o.                                                                    ",
"                                                    [ [ >.o.                                                                    ",
"                                                    o.,.,.,.e e                                                                 ",
"                                                  [ [ ,.,.,.,.w e             o.o.o.o.o.                                        ",
"                                                  [ q.,.>.>.>.,.8 e         [ [ >.,.[ o.                                        ",
"                                                e e 0.0.7.7.>.,.=.> 5   [ o.,.>.>.o.[ [                                         ",
"                                                8 i , , , > ' -.,.=.,.[ [ -.>.>.,.} M e                                         ",
"                                                6 e i i i y Z ' >.>.o.o.>.' Z >.} M M e                                         ",
"                                    o.[ o.[   e e i i g g f Y ' >.>.o.,.' Z ' >.[ b b e                                         ",
"                                    [ q.,.o.[ u i i f f g g W Z { } [ T Y ' ,.[ [ b c e                                         ",
"                                    [ 7.q.-.,.e e g g f g Y ' [ } ' Y @.Y Y [ o.c b @.e { { o...5 ,                             ",
"                                    o.,.q.-.=.e e e e j Y [ [ | F ' ' Z +.' [ N b @.b e _ _ ] _ _ 5                             ",
"                                    [ ,.q.0.e w c c e 5 [ [ S | o.T ' Z Y [ o.@.@.g N e _ q.] 7.>.>                             ",
"                                    e ,.,.0.> > c c g 5 o.Y Y Y o.Y Y ' q.q.m c j g b e _ q.7.>.>.5                             ",
"                                    e >.,.q., c c g f [ | ' T T o.0.Y Y 7.f g f g g e e f f 7.7.>.2                             ",
"                                    e >.e e e c g g g [ Z Y T T ' 0.Y 7.7.g f g f e e f f f j >.>.5                             ",
"                                    e e e ,.q N f f [ o.T Y Y ' Z 7.7.7.f g f e e e e f f g g >.5                               ",
"                              [ [   e ,.,.,.q q f g o.W T B S S ' ' 7.7.7.7.{ 8 j e g j f u g 4                                 ",
"                              [ [ [ o.o.>.,.>.q w j [ ' S S S S Y Y 7.7.k g f f f w f g g z z 5 o.[                             ",
"                              [ q.,.o.o.[ >.>.@.@.o.[ S B S V V S e e f f j j f f e f j f z , { i [                             ",
"                              [ 0.-.,.>.o.@.@.@.@.[ S S B S B V S e g j g g j f f e g g f { { { i [                             ",
"                            [ ,.0.0.0.-.e @.@.@.[ o.S S B B B B 9 g f i i i y j f e g g [ [ u i i e                             ",
"                            o.,.,.>.-.-.8 e +.+.| Z Z Z B B B S 9 g t y i i t t g , j o.o.i g f y e                             ",
"                            o.[ ,.-.,.-.-.8 +.+.[ Z Z B B B S S e i t t t i i u j , o. .i i f f y w                             ",
"                              [ >.,.q.-.' w +.+.{ V B B B B S 9 e i u t y y t y y , i i i z f f i e                             ",
"                              [ >.>.q.q.Z w , +.{ V S B B S S 9 i i i i y y y t , < u c c g f f 8                               ",
"                                [ -.>.0.T T , +.{ V V F S S S 8 i i i P G K i , 5 i i ,.c m f g G                               ",
"                                X.e >.' T T , , [ V S S S S 9 6 i K K 1.<.<.K i G i c ,.L L L L ^ K                             ",
"                                  K w Z T T Z T | S S S S S < i K ^ 1.1.K K K 1.1.P >.P / 1.<.1.^ K                             ",
"                                K ^ K ' _ K _ ' [ S S S S S < i K ^ K K i i 1.1.P c G 1.1.1.L L L                               ",
"                              K ^ K e Y G 1.G L e S S S S < P P K ^ G L K K 1.L G L / / P L f w                                 ",
"                              K 1.K e e G 1.1.1.K S S S K K 1.1.^ ^ ^ ^ / 1.^ ^ ^ ^ ^ G G n j e                                 ",
"                              K 1.K   e G G L 1.K K L L ^ 1.1.K L G L G K 1.^ K G G P c c n 5                                   ",
"                              K 1.1.K K G / / / / 1.1.1.1.1.K u i i i 5 K 1.K i i i i m m 2 5                                   ",
"                                L <.^ ^ ^ / K K L L L 1.K , i i i G L L <.1.K i , , 5 5 > 2                                     ",
"                                  L L ^ L 5 > , B B A 1.1.< i i i G ^ ^ 1.L i i 5                                               ",
"                                    K ^ K   > 4 C C S S , u y y , K ^ P L 2 2 , 2                                               ",
"                                      K       2 > , > < > < , , ,   L 5 2 5                                                     ",
"                                                                                                                                ",
"                                                                                                                                ",
"                                                : * : : : : * * : : : : * * * *                                                 ",
"                                      : : : : : * : : : : : : * : : : : : : * * : : : : :                                       ",
"                                : : : : : : : : : : * * * * * * : : : : : : : * : : : : : : : :                                 ",
"                            * * * : : : : : : * O O # # + O X + # # # # O O O O : : : : : : : $ : :                             ",
"                          : * * : : : * : O X O O + + # + X + # O # # O # # X X @ X O : : : : : : : :                           ",
"                          * : * : : * * O O X O O O + O # + # + O # # O # # X X @ X O O : : : : : : :                           ",
"                          : : : : : : : : # O O X + + O O O # O # # O + O O # # O O O : * : : : : : :                           ",
"                            : : : : : : : = = : # + + O + O # # O # # O O O # # : : : * * : : : : :                             ",
"                                : : : : : = : : * * : : : : : : : : : $ * * * * : : * : : : : :                                 ",
"                                      : : * * $ * * : : : : : : : : : $ : * * * : : : : :                                       ",
"                                            : : * * * * : : : : : : : : * : : :                                                 ",
"                                                    : ; : : : : : : : : : :                                                     ",
"                                                                                                                                ",
"                                                                                                                                "
};
