/* XPM */
static char *cf88706eee354a45da6c9324f4894070yXjb87dd8JV5qLKP[] = {
/* columns rows colors chars-per-pixel */
"64 64 119 2 ",
"   c None",
".  c #3A3A3E",
"X  c #3B3A3E",
"o  c #3A3B3E",
"O  c #3B3B3E",
"+  c #3A3A3F",
"@  c #3B3A3F",
"#  c #3A3B3F",
"$  c #3B3B3F",
"%  c #525258",
"&  c #535258",
"*  c #525358",
"=  c #535358",
"-  c #525259",
";  c #535259",
":  c #525359",
">  c #535359",
",  c #5C5A6E",
"<  c #5D5A6E",
"1  c #5C5B6E",
"2  c #5D5B6E",
"3  c #5C5A6F",
"4  c #5D5A6F",
"5  c #5C5B6F",
"6  c #5D5B6F",
"7  c #747288",
"8  c #757288",
"9  c #747388",
"0  c #757388",
"q  c #747289",
"w  c #757289",
"e  c #747389",
"r  c #757389",
"t  c #5C5AB6",
"y  c #5D5AB6",
"u  c #5C5BB6",
"i  c #5D5BB6",
"p  c #5C5AB7",
"a  c #5D5AB7",
"s  c #5C5BB7",
"d  c #5D5BB7",
"f  c #6260B6",
"g  c #6360B6",
"h  c #6261B6",
"j  c #6361B6",
"k  c #6260B7",
"l  c #6360B7",
"z  c #6261B7",
"x  c #6361B7",
"c  c #6C6AB6",
"v  c #6D6AB6",
"b  c #6C6BB6",
"n  c #6D6BB6",
"m  c #6C6BB7",
"M  c #6D6BB7",
"N  c #7878B6",
"B  c #7978B6",
"V  c #7879B6",
"C  c #7979B6",
"Z  c #7878B7",
"A  c #7978B7",
"S  c #7979B7",
"D  c #0060F6",
"F  c #0160F6",
"G  c #0061F6",
"H  c #0060F7",
"J  c #0160F7",
"K  c #0061F7",
"L  c #0161F7",
"P  c #807EB6",
"I  c #817EB6",
"U  c #807FB6",
"Y  c #817FB6",
"T  c #807EB7",
"R  c #817EB7",
"E  c #807FB7",
"W  c #817FB7",
"Q  c #609EFE",
"!  c #619EFE",
"~  c #609FFE",
"^  c #609EFF",
"/  c #619EFF",
"(  c #609FFF",
")  c #8482B6",
"_  c #8483B6",
"`  c #8583B6",
"'  c #8582B7",
"]  c #9090B2",
"[  c #9190B2",
"{  c #9091B2",
"}  c #9191B2",
"|  c #9090B3",
" . c #9190B3",
".. c #9091B3",
"X. c #9191B3",
"o. c #8D8CC4",
"O. c #8C8DC4",
"+. c #8D8DC4",
"@. c #8D8CC5",
"#. c #9492DA",
"$. c #9493DA",
"%. c #9593DA",
"&. c #9492DB",
"*. c #9592DB",
"=. c #9493DB",
"-. c #9593DB",
";. c #A6C9FE",
":. c #A7C9FE",
">. c #A7C8FF",
",. c #A6C9FF",
"<. c #A7C9FF",
"1. c #D2D2E2",
"2. c #D3D2E2",
"3. c #D2D3E2",
"4. c #D3D3E2",
"5. c #D2D2E3",
"6. c #D3D2E3",
"7. c #D2D3E3",
"8. c #D3D3E3",
/* pixels */
"                                                                                                                                ",
"                                                                                                                                ",
"                                                                                                                                ",
"                                                                                                                                ",
"                                                                                                                                ",
"                                                      ..                                                                        ",
"                                                      ....                                                                      ",
"                                                      X.$.X.                                                                    ",
"                                                    X...-.X.                                                                    ",
"                                                    ..$.*.*.8 8                                                                 ",
"                                                  ....=.=.=.$.8 e             ..........                                        ",
"                                                  ..8.*.=.=.&.#.e 8         ..{ $.$.....                                        ",
"                                                8 e 4.4.8.8.$.*.$.4 6   ..[ -.=.-.X...X.                                        ",
"                                                8 y 6 6 6 3 R *.-.*.$...[ $.*.*.*.X.n e                                         ",
"                                                e e y u y y P P -.*.....*.P T *...c M r                                         ",
"                                    X.X.X.X.  8 8 y y z g z P ) -.$...$.P T P *...c c r                                         ",
"                                    ..8.$.....y s p z g g z P P X.X.{ ) P I %.....n n e                                         ",
"                                    ..8.8.$.$.8 e l g g j S P ....S T o.P P [ ..c c +.0 ......{ 6 6                             ",
"                                    ..*.7.=.*.8 8 8 8 l ) ..[ ..) T P P +.I ..c n +.n 0 ) ) ) ) ) 6                             ",
"                                H H ..$.7.7.8 8 M M 8 4 ....C ..X.P ) I P X...o.o.j c 0 ) 8.) 8.$.6                             ",
"                              J <.<.8 J *.8.6 6 c M j 4 X.) ) ) ..) S ) 8.8.m c z g c 8 ) 8.8.&.$.6                             ",
"                              J <.J e $.=.7.6 c c j j X.X.S T S ..8.) P 8.g g g g g 8 e g g 8.8.$.6                             ",
"                            J :.<.H e $.8 8 8 m x x j ..P T ) P ) 4.S 4.8.z j z z 8 e l g g g $.$.6 J                           ",
"                            H :.H   e e e &.8 m j j X.X.S ) ) S T 4.8.8.g g z 8 8 e e z z g g $.6 J / J                         ",
"                            H :.H   8 $.-.*.8 e z z ..P P C C B ) S 8.8.8.8.[ 8 g 0 z g g g z 6   J :.H                         ",
"                            H / / H ....*.-.-.e e z H H B C B B ) ) 8.8.g J J g z 8 z g z g z 1 X.J :.H                         ",
"                              J ^ ^ H ....$.&.o.o.J :.:.H C C C Z 8 H J H ^ ^ J g 8 j z g z 1 H J J / H                         ",
"                              [ J / / J H H H H J J J :.H H C C J J ^ ^ ^ / J g z 0 H z g { H :.:.:.H                           ",
"                            ..$.8.J / ^ ~ / ^ :.^ ( H :.:.J C H ^ / H / ^ H y z H H <.H ....J :.J H                             ",
"                            ..$.$.^ / H H H :.^ H ( ^ / H J H ^ H H y H H y H H <.:.<.H ..H :.:.H 8                             ",
"                            ....J ^ J &.%.J :.J ..H H ( / / H ^ H u u y y J :.:.<.H H ..H <.:.H H e                             ",
"                              H ^ J 8.&.) J :.J ..C C H H ( / / J J H H H H :.H H H H H / <.H z y e                             ",
"                            H / / H 4.8.) H <.H [ C J :.:.:.H / ^ ^ ( / ^ / :.:.:.:.:.( ( / / / H                               ",
"                              J H $.$.4.J Q / H ..Z J :.J H C H H H H ^ H H H H H H H H H H H / / H                             ",
"                                ..8 $.P J ^ ( H J B J :.J C 0 e y p H ^ H y 6 y y y c $.$.n z H H                               ",
"                                  8 0 ) C J / ( ^ J C J S N 2 y p p H / / H 6 y y c $.8.$.n z z 8                               ",
"                                    e ) S ) H H J Z B C N N , y u p y H ^ H 6 p n n &.8.$.c z 8 8                               ",
"                                    8 P ) S P P 7 B Z B N , , u u y H ^ ^ H 6 y n &.8.&.$.c z 8                                 ",
"                                    e 8 P ) U e 8 B B B N 6 u p p p y J / Q H y $.8.*.-.n n z 8                                 ",
"                                      8 P U U 8 N B C B N 6 y p u p u u H H p &.8.8.-.n n c 6                                   ",
"                                        8 ) P 4 B C Z B B 6 u p y y p 6 3 u y p y p p c c 6 6                                   ",
"                                        e e S 3 B B C B B 6 p y y p 6 , p y p y 1 1 6 2 6 6                                     ",
"                                          6 6 2 C B N B 6 3 y u u 6 3 u y p p y 6                                               ",
"                                            2 6 Z B C C 3 p p y , , u u p 3 6 6 3                                               ",
"                                              4 6 3 3 6 6 6 6 6 6   6 3 3 3                                                     ",
"                                                                                                                                ",
"                                                                                                                                ",
"                                                                                                                                ",
"                                                                                                                                ",
"                                              : : & > : = = > > > : : > > : : > >                                               ",
"                                      > > > > = > > : : > > & : > : > = > > > : : : > = >                                       ",
"                              > : > > > > > = : > > : > : : > : : = > > > > > : = = > : > > > = >                               ",
"                          : = > > > > : : > : > X X @ @ o $ @ @ @ @ o @ $ o $ @ & : > > > : : = > > :                           ",
"                        : > > > > > : > > > @ o X X @ @ @ $ @ @ @ @ o o $ $ $ $ @ @ = > > > > > : : > >                         ",
"                      > > > : = > > > : X $ o @ X X $ $ o $ $ $ $ $ $ $ $ $ O O o o X @ > > : : > > > > >                       ",
"                      > > = > > > > > @ @ @ o @ $ $ $ $ $ $ $ $ $ X O o O o X X O @ @ @ X > > > > : > > >                       ",
"                      > > > : > : > > : @ o $ @ @ o $ $ O o o @ $ $ @ @ @ $ @ o @ @ @ @ > > : : > > > : :                       ",
"                        > : = = : : = & > > X X o $ o $ $ o O @ $ $ $ X @ o $ $ @ X : & : > : > > > > >                         ",
"                        : > : = > > & = > > > > O $ o o $ $ X @ $ @ @ X o @ @ @ : : : & : > > = > : >                           ",
"                                > & : = : = > > > > > > > > : > : : : > > : : > > > > > : & & = :                               ",
"                                      : > > > : > > > > > > : : : : > > > > > & : > > >                                         ",
"                                                > > : > > > > > > : : > > > > &                                                 ",
"                                                                                                                                ",
"                                                                                                                                "
};
