/* XPM */
static char *_2bbec1dbcab4d10ea3e52d515978acf3BuqGbgXNXkhGeYd[] = {
/* columns rows colors chars-per-pixel */
"64 64 120 2 ",
"   c None",
".  c #3A3A3E",
"X  c #3B3A3E",
"o  c #3A3B3E",
"O  c #3B3B3E",
"+  c #3A3A3F",
"@  c #3B3A3F",
"#  c #3A3B3F",
"$  c #3B3B3F",
"%  c #525258",
"&  c #535258",
"*  c #525358",
"=  c #535358",
"-  c #525259",
";  c #535259",
":  c #525359",
">  c #535359",
",  c #5C5A6E",
"<  c #5D5A6E",
"1  c #5C5B6E",
"2  c #5D5B6E",
"3  c #5C5A6F",
"4  c #5D5A6F",
"5  c #5C5B6F",
"6  c #5D5B6F",
"7  c #747288",
"8  c #757288",
"9  c #747388",
"0  c #757388",
"q  c #747289",
"w  c #757289",
"e  c #747389",
"r  c #757389",
"t  c #5C5AB6",
"y  c #5D5AB6",
"u  c #5C5BB6",
"i  c #5D5BB6",
"p  c #5C5AB7",
"a  c #5D5AB7",
"s  c #5C5BB7",
"d  c #5D5BB7",
"f  c #6260B6",
"g  c #6360B6",
"h  c #6261B6",
"j  c #6361B6",
"k  c #6260B7",
"l  c #6360B7",
"z  c #6261B7",
"x  c #6361B7",
"c  c #6C6AB6",
"v  c #6D6AB6",
"b  c #6C6BB6",
"n  c #6D6BB6",
"m  c #6D6AB7",
"M  c #6C6BB7",
"N  c #6D6BB7",
"B  c #7878B6",
"V  c #7978B6",
"C  c #7879B6",
"Z  c #7979B6",
"A  c #7878B7",
"S  c #7978B7",
"D  c #7879B7",
"F  c #7979B7",
"G  c #0060F6",
"H  c #0060F7",
"J  c #0160F7",
"K  c #0061F7",
"L  c #0161F7",
"P  c #807EB6",
"I  c #817EB6",
"U  c #807FB6",
"Y  c #817FB6",
"T  c #807EB7",
"R  c #817EB7",
"E  c #807FB7",
"W  c #817FB7",
"Q  c #609EFE",
"!  c #619EFE",
"~  c #609FFE",
"^  c #609EFF",
"/  c #619EFF",
"(  c #609FFF",
")  c #619FFF",
"_  c #8582B6",
"`  c #8483B6",
"'  c #9090B2",
"]  c #9190B2",
"[  c #9091B2",
"{  c #9191B2",
"}  c #9090B3",
"|  c #9190B3",
" . c #9091B3",
".. c #9191B3",
"X. c #8C8CC4",
"o. c #8D8CC4",
"O. c #8C8DC4",
"+. c #8D8DC4",
"@. c #8C8CC5",
"#. c #8D8CC5",
"$. c #9492DA",
"%. c #9493DA",
"&. c #9593DA",
"*. c #9492DB",
"=. c #9592DB",
"-. c #9493DB",
";. c #9593DB",
":. c #A6C9FE",
">. c #A7C9FE",
",. c #A6C8FF",
"<. c #A7C8FF",
"1. c #A6C9FF",
"2. c #A7C9FF",
"3. c #D2D2E2",
"4. c #D3D2E2",
"5. c #D2D3E2",
"6. c #D3D3E2",
"7. c #D3D2E3",
"8. c #D2D3E3",
"9. c #D3D3E3",
/* pixels */
"                                                                                                                                ",
"                                                                                                                                ",
"                                                      [                                                                         ",
"                                                      [ ..                                                                      ",
"                                                      [ ;.[                                                                     ",
"                                                    [ } ;.}                                                                     ",
"                                                    ..;.;.;.0 q                                                                 ",
"                                                  ..[ ;.&.J J 0 0             ..[ [ [ [                                         ",
"                                                  [ 7.&.H >.>.H 0 0 J       ..[ &.*...[                                         ",
"                                      H         0 r 6.6.H >.H -.;.J ^ J [ } ;.&.;.......          J                             ",
"                                    H ^ H       0 p 6 H H >.H H H ^ ^ H } ;.-.*.;.} n q         J ^ J                           ",
"                                  H ~ H         0 0 H ^ J >.H ^ ^ ^ H [ &.` Z &.' n n 0       H ~ ^ J                           ",
"                                J >.J } } [   0 0 J 2.2.H H ^ ^ H H 2.H ` Z P &.} n n 0     H H ^ H 2.H                         ",
"                              H >.H ..7.;.[ [ s s J 2.H f H ^ ^ H H 2.2.J ` *.....m n 0   J ^ ^ ^ H 2.2.J                       ",
"                            H 2.H   [ 7.7.&.&.q 0 H 2.H j P H ^ H P J 2.2.H [ ..n n +.q J 2.2.H 1 6 H 2.J                       ",
"                            H 2.H   [ &.7.;.;.0 0 H ^ ^ H [ H ^ H H J J H H J J n @.M J 2.2.H ` ` 5 H 2.J                       ",
"                            H 2.H   [ &.9.7.0 0 n n H ^ ^ H H H ^ ^ ^ ^ ^ ^ ^ ^ H H H 2.2.H ` 7.&.5   H >.J                     ",
"                            H 2.2.H 0 &.;.9.3 3 n n j H 2.2.^ ^ ^ H 2.H H H H ^ 2.2.2.2.H 7.7.-.&.5 H H ^ H                     ",
"                              H H ^ ^ ^ ~ H J J H H H H H 2.2.H H H 2.H 7.j H ^ ^ H H H j j 7.7.&.H ^ ^ H                       ",
"                            H ^ ^ H H H 2.2.2.2.>.^ ^ ^ ^ H H ` ` H 2.H 7.j j H ^ ^ ^ H f f f ;.&.5 H H                         ",
"                            H ^ J   0 0 H H H H H 2.2.H ` P P H H 2.2.H j j j 0 H H ^ H j f l &.5                               ",
"                            H ^ J   0 ;.-.-.>.r j H 2.2.J H H 2.<.H H 7.7.7.} q f H ^ ^ J j f 5                                 ",
"                              J ..[ [ ..-.-.>.r q f H 2.^ 2.2.2.H ` 4.7.j j j f j <.>.^ J J l 3 [ '                             ",
"                              } 9.&.[ [ [ 2.2.+.+.' H ^ H H J J B 7 7 f f f f H H >.H ^ ~ ^ H [ p [                             ",
"                              } 7.-.&.-.} 2.2.X.X.} H ^ J B S A B 7 g j g f H 2.2.2.H H H ^ H [ d [                             ",
"                            ..;.7.7.7.&.0 +.2.2.[ } H ^ J B A Z 7 f l i i i H 2.J J f j [ H p i p r                             ",
"                            ..;.-.-.-.-.0 0 +.2.2.Z H ^ J S S S 7 l p i s t G 2.J 3 f ' [ i l j p r                             ",
"                            ..[ -.&.-.-.&.0 X.+.' Z Z H B B Z S 0 p p p t t i H l 3 ' ' p p l l p 0                             ",
"                              [ &.-.7.&.Z 0 +.+.[ B Z B S S S 0 9 i s t t p i i p , p p s k f j p r                             ",
"                              [ -.-.7.7.` r 5 +.' Z Z S Z Z S 0 s u t t p i t i 3 , p c M f k j 7                               ",
"                                ' &.&.7.P ` 5 +.[ Z B S B Z Z 0 t t s t p p t , , t s -.n n l j 0                               ",
"                                ' 7 &.P ` Z 5 5 [ Z Z B B S 0 0 t t i i p p 5 p s t n &.-.n j l 0                               ",
"                                  0 0 P P ` P P } Z B V B B , i s t t i t t , s t n -.3.&.n f k 0                               ",
"                                    0 P P Z ` R ..Z V B B B , p t i t i t t , s n M -.3.&.n k 0 0                               ",
"                                    r _ ` Z R P 0 S V V B 5 5 y t i s t p , , p n &.7.&.&.m f 0                                 ",
"                                    r r F _ R 0 w B V B B 5 p y p p i i p 5 p p &.7.&.&.n c f 0                                 ",
"                                      0 Z _ R 0 V Z B B V 6 p i t t i p , 5 y $.7.7.&.n v v 5                                   ",
"                                        0 ` P 3 V Z Z V B 5 i p s t i 5 5 p i y p p p n v 6 5                                   ",
"                                        r r R 3 S S B V V 5 y p t t , , y s p y 5 5 5 6 6 5                                     ",
"                                          6 3 4 B B V V 5 5 p y p 5 5 p t t i y 6                                               ",
"                                            3 3 B B B B 5 p p p , 5 p p p 5 5 5 5                                               ",
"                                              5 5 5 5 5 5 5 5 5 ,   5 5 5 5                                                     ",
"                                                                                                                                ",
"                                                                                                                                ",
"                                                                                                                                ",
"                                                                                                                                ",
"                                                                                                                                ",
"                                                                                                                                ",
"                                              > * > > > > > > > = > > > > > > > >                                               ",
"                                      > > > > > > > > * > > > > : > > : > > > > * > > > >                                       ",
"                                * > > * > > > > > > > > > > > > > > > > > > > > > > > > > > = >                                 ",
"                          > > > > > > * > > > . . . . . @ @ @ $ @ O @ . @ . + $ . > > > = * > > > > >                           ",
"                        > > > > > > > > > > O O . @ . # $ # $ $ O O # # . $ . O . @ > > : : : > > > > >                         ",
"                      > > > > > > > > . + $ O O $ @ $ # O @ $ $ O O $ # $ $ O @ @ @ @ @ # : > = > > > > >                       ",
"                    * > > > > > > > @ $ $ $ @ O $ O O O $ $ O $ $ $ O # O $ @ $ O . @ O . + % > > > > > * *                     ",
"                    > > * > > > > > O $ $ $ @ @ $ . O # # $ $ $ $ # $ # O . @ $ O @ . $ . . > > > > > > > >                     ",
"                      > > > > > = > > @ @ @ @ @ $ $ $ O + $ $ + $ $ @ @ . O $ + $ $ . + . > % > > > > > >                       ",
"                        > > > > > > = * > = . . $ $ $ . + $ $ $ $ + $ $ @ @ $ O $ . > > > > > > > * > >                         ",
"                          > * > = > > > > > > . . $ . @ $ @ . . $ @ @ . O @ @ O . > > > > > > > > > >                           ",
"                                > = * > * * > > > > > > > > * > > > > > > : > > > > > > > > > >                                 ",
"                                      > > > > > > > > > > > > * > > > > > > * > > > > > >                                       ",
"                                                > > > > > > > > > > > > > > > >                                                 ",
"                                                                                                                                ",
"                                                                                                                                "
};
