/* XPM */
static char *d1d3772417dc49609cd49dbefdbd20d63TU8SYWnjLQWoKM5[] = {
/* columns rows colors chars-per-pixel */
"64 64 125 2 ",
"   c None",
".  c #3A3A3E",
"X  c #3B3A3E",
"o  c #3A3B3E",
"O  c #3B3B3E",
"+  c #3A3A3F",
"@  c #3B3A3F",
"#  c #3A3B3F",
"$  c #3B3B3F",
"%  c #525258",
"&  c #535258",
"*  c #525358",
"=  c #535358",
"-  c #525259",
";  c #535259",
":  c #525359",
">  c #535359",
",  c #5C5A6E",
"<  c #5D5A6E",
"1  c #5C5B6E",
"2  c #5D5B6E",
"3  c #5C5A6F",
"4  c #5D5A6F",
"5  c #5C5B6F",
"6  c #5D5B6F",
"7  c #747288",
"8  c #757288",
"9  c #747388",
"0  c #757388",
"q  c #747289",
"w  c #757289",
"e  c #747389",
"r  c #757389",
"t  c #5C5AB6",
"y  c #5D5AB6",
"u  c #5C5BB6",
"i  c #5D5BB6",
"p  c #5C5AB7",
"a  c #5D5AB7",
"s  c #5C5BB7",
"d  c #5D5BB7",
"f  c #6260B6",
"g  c #6360B6",
"h  c #6261B6",
"j  c #6361B6",
"k  c #6260B7",
"l  c #6360B7",
"z  c #6261B7",
"x  c #6361B7",
"c  c #6C6AB6",
"v  c #6D6AB6",
"b  c #6C6BB6",
"n  c #6D6BB6",
"m  c #6D6AB7",
"M  c #6C6BB7",
"N  c #6D6BB7",
"B  c #7878B6",
"V  c #7978B6",
"C  c #7879B6",
"Z  c #7979B6",
"A  c #7878B7",
"S  c #7978B7",
"D  c #7979B7",
"F  c #0060F6",
"G  c #0160F6",
"H  c #0061F6",
"J  c #0161F6",
"K  c #0060F7",
"L  c #0160F7",
"P  c #0061F7",
"I  c #0161F7",
"U  c #807EB6",
"Y  c #817EB6",
"T  c #807FB6",
"R  c #817FB6",
"E  c #807EB7",
"W  c #817EB7",
"Q  c #807FB7",
"!  c #817FB7",
"~  c #609EFE",
"^  c #619EFE",
"/  c #609EFF",
"(  c #619EFF",
")  c #609FFF",
"_  c #619FFF",
"`  c #8482B6",
"'  c #8483B6",
"]  c #8583B6",
"[  c #8483B7",
"{  c #9090B2",
"}  c #9190B2",
"|  c #9091B2",
" . c #9191B2",
".. c #9090B3",
"X. c #9190B3",
"o. c #9091B3",
"O. c #9191B3",
"+. c #8C8CC4",
"@. c #8D8CC4",
"#. c #8D8DC4",
"$. c #8C8CC5",
"%. c #8C8DC5",
"&. c #8D8DC5",
"*. c #9492DA",
"=. c #9592DA",
"-. c #9493DA",
";. c #9593DA",
":. c #9492DB",
">. c #9592DB",
",. c #9493DB",
"<. c #9593DB",
"1. c #A7C8FE",
"2. c #A6C9FE",
"3. c #A7C9FE",
"4. c #A6C8FF",
"5. c #A7C8FF",
"6. c #A6C9FF",
"7. c #A7C9FF",
"8. c #D2D2E2",
"9. c #D3D2E2",
"0. c #D2D3E2",
"q. c #D3D3E2",
"w. c #D3D2E3",
"e. c #D2D3E3",
"r. c #D3D3E3",
/* pixels */
"                                                                                                                                ",
"                                                    K                                                                           ",
"                                                  K 7.J K K                                                                     ",
"                                                  K 7.7.7.7.K                   K                                               ",
"                                                    K K K 7.K K K K           K 7.K                                             ",
"                                  K             K K K X.K 7.7.7._ _ K     K K 7.K                                               ",
"                                J 7.J     K K K 7.7.7.O. .K K K K _ / K K 7.7.7.K       K                                       ",
"                                K 7._ J K 7.7.7.7.G K O.,. .      K _ _ 7.7.K K     K K 7.K           K                         ",
"                              K 7.K _ _ / K K K K   O.O.,.O.      K 7._ K K     K K 7.7.K           K 7.K                       ",
"                              K 7.K K 7./ K         O.,.*.,.w 9     K ~ K     K _ 7.K K         K K 7.7.K                       ",
"                            K 7.7.K   K / K K     O.O.,.*.,.*.w w   K / K K K J / K K K K K K K 7.7.7.K                         ",
"                          K 7.7.K     7./ 7.7.K K K K K K K K K K K _ / / / _ _ / _ 7.7.7.7.7.7.K K K                           ",
"                          K 7.K     K 7.K K 7./ _ / 7.r.r.7.7./ / K K K K K K J K K 7.K K K K 7.7.K                             ",
"                          K 7.7.K K 7.7.K 7./ / 9 d 5 7.1.1.G K _ K K O.O.-.,.,.*.K 7.7.K K K K K 7.K                           ",
"                            K 7.K K 7.K   7.L L 9 9 t t G 7.G T K _ / K *.U ` ,.O.n K 7.3.3.7.K   I                             ",
"                              K     K O.O.K   9 9 d t K 7.7.G T ,.K 7.7.G U Z ,.O.N N K J K 7.K K K                             ",
"                                    { r.,.{ o.d u u x K 7.K T T  . .K 7.G T ,.O.{ n n 7     K 7.7.7.K                           ",
"                                    O.r.r.*.,.9 8 x x K 3.K K O.O.Z ` K U T O.O.n b #.0 O.O.O.K K 7.7.K                         ",
"                                    O.,.r.,.*.9 8 8 8 K 7.7.7.K ` U U U #.U O.b n #.N 9 ] ` ` ` ] K 7.K K                       ",
"                                    O.*.r.r.9 9 c N 8 < K K 7.7.K U U U U O.O.#.#.x b 9 ` r.` r.,.K 7.7.7.K                     ",
"                                    9 ,.,.r.6 5 v v f 5 o.U L K O.U U U 8.8.b b x f c 7 ` r.r.*.,.6 K K 7.K                     ",
"                                    w ,.,.r.5 N v f f O.o.E U ` O.r.` U 8.f f f x x 9 w f f r.r.,.6     K                       ",
"                                    9 ,.w w w N x x x O.U U [ Z Z 8.U r.r.x x x x 7 9 x f f f *.,.6                             ",
"                                    9 9 9 *.w N x x O.O.D ` [ D ` 8.r.r.f x x 7 w 8 w x f f x *.6                               ",
"                              { o.  w >.>.,.w 9 x x { U Q C D V ` U q.q.q.q.O.0 x 8 f f x f x 5                                 ",
"                              O.o.o.o.o.,.>.>.9 w x  .Z D V C D Z ` r.r.f f x x f 7 f f x f f 5 O.O.                            ",
"                              O.r.>.o.o.o.>.>.#.&.o. .Z V V D V V 0 9 x f x f x f w g f x x 1 O.t O.                            ",
"                              O.r.,.,.>.o.#.#.#.#.o.Z Z D V V V V 0 x x x f x f x w f f x { { O.t O.                            ",
"                            O.-.r.r.r.,.0 #.#.#.o.O.V V V V V V w l g t t u u f f w f f { O.t u t w                             ",
"                            O.*.,.*.,.,.9 9 #.#.X.S V V V V V V w g a t u u t u f < f X.O.u x f t w                             ",
"                            O.O.,.,.;.*.,.w +.#.O.S S V V C V V w t t t t t t t f 5 X.X.u u f f t w                             ",
"                              O.,.,.r.*.` w #.#.O.S S S C V V w 9 t t t t t t u t 5 t t u f x x t w                             ",
"                              O.*.*.r.r.U w 5 #.{ C C D C V V w t t s t a s t t 5 5 t N N g f f 8                               ",
"                                X.-.-.r.W E 5 #.o.V C V V V V w t t a t a s t 5 5 t t *.v N f f 8                               ",
"                                O.w ,.` U [ 5 5 o.V V C C V 7 w a a t d t t 5 t t t N *.-.v x x w                               ",
"                                  w w U U U U U o.V V V V V 1 u t t t t a t 5 t t v -.8.-.v f f w                               ",
"                                    w Z Z [ U ` O.V V D V V 5 u t t a y t t 5 t N N -.r.*.N x w 9                               ",
"                                    9 ` ` U [ Z w V V V V 6 6 u d t a y t 5 5 t N *.8.*.,.N x w                                 ",
"                                    w 9 E U Z w w D V V V 6 d t t t t y t 5 t t *.r.*.*.n N g w                                 ",
"                                      w U ` ` w S C V C V 5 t t y t y t 5 5 t *.r.r.*.N N N 5                                   ",
"                                        9 [ E 5 V V V V V 5 t t a t a 6 6 d t d t t t N N 5 5                                   ",
"                                        9 9 E 5 V V V V D 5 d d t a 5 5 t t t t 6 6 5 5 5 5                                     ",
"                                          5 5 5 V V V V 5 5 t t t 5 5 t t t y t 5                                               ",
"                                            5 5 V V V S 5 t t t 5 5 t t t 5 5 5 5                                               ",
"                                              5 5 5 5 5 5 5 5 5 4   5 4 5 5                                                     ",
"                                                                                                                                ",
"                                                                                                                                ",
"                                                                                                                                ",
"                                                                                                                                ",
"                                              ; > > > > * * * * > > > > > > > ; *                                               ",
"                                    > * ; > > ; > > * ; * * & & * ; ; > * * * ; ; > > > > ;                                     ",
"                            > ; ; ; > * ; > * ; > ; ; > * * * & ; > ; > ; ; * * = ; > ; * > > ; > >                             ",
"                        > > > > * * ; ; * * % & $ $ $ $ $ $ $ $ O $ $ $ $ $ $ $ & * * ; = ; > ; > > > *                         ",
"                      * > > ; = > > * ; * * . $ $ $ $ $ $ $ $ $ O $ $ $ $ @ $ $ $ $ ; ; > > * * > > * ; >                       ",
"                    ; > > > > = > > ; ; # # $ $ $ $ $ $ . $ . $ $ $ $ $ $ @ $ # @ @ # @ ; ; > > * * * ; > ;                     ",
"                    * * * ; * = > ; ; # $ # $ $ $ $ $ $ $ . . $ $ $ $ $ $ # $ O O O @ @ O > > ; * * * ; ; ;                     ",
"                    * * * ; ; * ; > > > O O $ $ $ $ $ $ $ $ $ # $ $ $ $ $ $ $ $ # # $ O > > ; = > > > > > >                     ",
"                      * > > ; ; > > > > > > $ $ $ $ $ @ $ $ $ # $ $ $ $ $ $ $ $ O O * ; ; * ; * > > > ; >                       ",
"                        > > * ; * ; > > : > > > $ $ @ @ $ $ O $ $ $ $ $ $ $ $ $ > ; > = ; > > ; * ; > *                         ",
"                            > > * * * > : > > > & & ; ; - - > > & * & * & & * & ; ; > > > > * * > >                             ",
"                                    ; > ; * * * & * * * > > > > > ; > > & * * * * ; > > > ;                                     ",
"                                              * & > * * > > > > > * > ; & * * * >                                               ",
"                                                                                                                                ",
"                                                                                                                                "
};
