/* XPM */
static char *f9154f4547264182dc4ab474d1ef835c8eqaAnFWa1C9wcE4[] = {
/* columns rows colors chars-per-pixel */
"64 64 85 1 ",
"  c None",
". c #3B3A3E",
"X c #3B3B3E",
"o c #3A3A3F",
"O c #3B3A3F",
"+ c #3A3B3F",
"@ c #3B3B3F",
"# c #535258",
"$ c #525358",
"% c #535358",
"& c #525259",
"* c #535259",
"= c #525359",
"- c #535359",
"; c #5C5A6E",
": c #5D5A6E",
"> c #5C5B6E",
", c #5C5A6F",
"< c #5D5A6F",
"1 c #5C5B6F",
"2 c #5D5B6F",
"3 c #747288",
"4 c #757288",
"5 c #757388",
"6 c #747289",
"7 c #757289",
"8 c #747389",
"9 c #757389",
"0 c #5C5AB6",
"q c #5D5AB6",
"w c #5C5BB6",
"e c #5D5BB6",
"r c #5C5AB7",
"t c #5D5AB7",
"y c #5C5BB7",
"u c #6260B6",
"i c #6360B6",
"p c #6261B6",
"a c #6361B6",
"s c #6260B7",
"d c #6360B7",
"f c #6261B7",
"g c #6D6AB6",
"h c #6C6BB6",
"j c #6D6BB6",
"k c #6D6BB7",
"l c #7878B6",
"z c #7978B6",
"x c #7879B6",
"c c #7979B6",
"v c #7978B7",
"b c #807EB6",
"n c #817EB6",
"m c #807FB6",
"M c #817FB6",
"N c #807EB7",
"B c #807FB7",
"V c #817FB7",
"C c #8483B6",
"Z c #8583B6",
"A c #8483B7",
"S c #8583B7",
"D c #9090B2",
"F c #9190B2",
"G c #9091B2",
"H c #9191B2",
"J c #9090B3",
"K c #9190B3",
"L c #9091B3",
"P c #9191B3",
"I c #8D8CC4",
"U c #8C8DC4",
"Y c #8D8DC4",
"T c #8D8DC5",
"R c #9492DA",
"E c #9493DA",
"W c #9593DA",
"Q c #9492DB",
"! c #9592DB",
"~ c #9493DB",
"^ c #9593DB",
"/ c #D3D2E2",
"( c #D2D3E2",
") c #D3D3E2",
"_ c #D3D3E3",
/* pixels */
"                                                                ",
"                                                                ",
"                                                                ",
"                                                                ",
"                                                                ",
"                                                                ",
"                                                                ",
"                                                                ",
"                           D                                    ",
"                           PP                                   ",
"                           D^P                                  ",
"                          PP~L                                  ",
"                          P^^~99                                ",
"                         PP^~Q~98      PPPPP                    ",
"                         F(^^Q~Q88    PD^QPL                    ",
"                        88((_(~Q~:: DP^^^PPP                    ",
"                        80:::1M^~~QDP^~~WDk9                    ",
"                        880000MM~^DP^CcQDkk5                    ",
"                  PDDP 9800iiicC~~P^MMC^Dkk5                    ",
"                  D_^PPe00iiiiCcDDJCAcWHHkk9                    ",
"                  G(_W^88addiMCDPAcTCcDHkjY5DDDD11              ",
"                  D~_W~9888dcDDDCcCCUmHjkYk5CCSSC1              ",
"                  D^_(98jj81PPvDPAcCCDDUUpk5C)C(^1              ",
"                  9^W(11jjf2DCMMPcMM_(kkipk5C)(~~:              ",
"                  9W~):jjiiDDMMMP_MM(iiiii88ii((^1              ",
"                  9~888jaiiPMMcCM)C_(iiii88ifii~^:              ",
"                  999~9kaaPPcCMMM___sii3888iiffW,               ",
"               PD 8~^W99aaPcCvvcMc__(_G3i3ifffe>                ",
"               PPPPP~^^99iDCvvvlcC((iiiii8ifadd1PP              ",
"               D(^PPP~^UUPDvvvccv53fiiefi8ifid1P0D              ",
"               D(W^^PUUUUPvvvllll5ifiiiii8iiiFPD0D              ",
"              D~(_(^9UUUPPvvllll5aiyyyyii9iiDD0008              ",
"              P^~~~~97UUFzzzcllv5i000000i1iFD0iiy9              ",
"              PP~~~~^7TUDzzzcvlv90ee0000i;DF00iiy8              ",
"               P~~)^C8UIDvzcccv5900000000;ww0iie09              ",
"               P~~(_M81UDvzzccv900e0000e1;wkjisi9               ",
"                F~~)MM,UHcczvll5000ey0e2:00~ggii9               ",
"                F8~MMM,1Hczzvv55y00e00,000jQQgii9               ",
"                 88McCMMFzzzvv>e000000100j~(Qkii9               ",
"                  8MMMMMPzzzvv>000000010jj~(~kd89               ",
"                  8MMcCM4vvcz::00000011yj~)~~ji8                ",
"                  88MMM84zlcv:0000000100~)!~jji8                ",
"                   8MCM8czllv>000000110^/)~jjj1                 ",
"                    8cM:clvll>0ee00:1000tttjk11                 ",
"                    88M:vvvlv10000110000::11:,                  ",
"                     111vvvl:>00y2:0000y:                       ",
"                      ::lvvv1y00,10001<1,                       ",
"                       1,::,::::, 1111                          ",
"                                                                ",
"                                                                ",
"                        ----------------                        ",
"                   ----------%-------$--$--$-                   ",
"                -------$-$$---------$-----$-----                ",
"              -$$-$----$OO@@OO@@@@@@@@@@--*$$-----              ",
"             --------O@@O@@O@@O@@@@@@@@@@@@*--$----             ",
"             -------@O@@O@@@@@@@@@@@@@@@@@@@-----$-             ",
"             --$--$--OOOOO@@@O@@@@@@@@@@@@@--------             ",
"              -----$----O@@@@OO@@@@@@@@@----$--$--              ",
"                ----------------$--*--$---------                ",
"                   $$------$-------$*--------                   ",
"                      ---------$----------                      ",
"                          ------------                          ",
"                                                                ",
"                                                                "
};
