/* XPM */
static char *ec029a5aafde455dc287a15daee1e30cHAdaHoCsKBFjIZcT[] = {
/* columns rows colors chars-per-pixel */
"64 64 11 1 ",
"  c #14862E",
". c #14872E",
"X c #14862F",
"o c #14872F",
"O c #0EB132",
"+ c #0FB132",
"@ c #0EB033",
"# c #0EB133",
"$ c #0FB133",
"% c #00BC44",
"& c #01BC44",
/* pixels */
"%% %%%%%$%%%%%%%%%%%%%%%%%%%$%%%%%%%%%%%$%%%%%%%%%%%%%%#  %%#%%%",
"%% %%%$%$%%%%%%$#%%%%%%%%%%#$%%%%%%%%%$%$%%%%%%$$%%%%%%%# %##%%%",
"%  %$$$%%%%%%%$$%%%%%%%%%%%$%%%%%%%%$$$%%%%%%%$$%%%%%%%%% %#%%%%",
" %%#%%%%%%%%%%$%%% #%%%%%%%%%%$%%%%$%%%%%%%%%%$%%%o$%%%%%%%%%%#%",
"%%%#%%%%%%%$%%%%%#  #%%%%%%%%$$%%%%$%%%%%%%$%%%%%$oo@%%%%%%%%##%",
"%%%%%%%%$$ $%%%%#   #%%%%$%%%$%%%%%%%%%%$$ $%%%%$ooo#%%%%#%%%#%%",
"%%%%% %%oo$%%%%%   #%%%%%$$%%$%%%%%%%o%%  $%%%%%o  $%%%%%##%%#%%",
"%%%%%  $ %%%%%%%%%   %%o$$%%%$%%%%%%%o $ %%%%%%%%%   %% ##%%%#%%",
"%#%%%#  $%%%%%%%%%%%%%%$$ %%%%%%%$%%%#  #%%%%%%%%%%%%%%$# %%%%%%",
"##%%%%% $%%%%%%%%%%%%$%$$%%%%%%%$$%%%%% #%%%%%%%%%%%%$%$#%%%%%%%",
"#%%%%%% $%%%%%%% $%%$$%%$%%%%%%$$%%%%%% $%%%%%%% $%%$$%%#%%%%%%#",
"%%%%%%%%$$%%%%%% $%%$$%%%%%%%%$$%%%%%%%%$#%%%%%% $%%$$%%%%%%%%##",
"%&&&%#%%%%#%%%% $ %%%$%%%%%%%##%%%%%%$%%%%$%%%% $ &&%#%%%%%%%##%",
"%&&&%##%%%%%%%o$$%%%%$%%%%%%%% %%%%%%$#%%%%%%% $$%&&%#%%%%%%%% %",
"%%$%%%###%%%%%##%%%%%%%$$$%%%%%%%%$%%%$#$%%%%%$$&&&&%%%###%%%%%%",
"&$$&%%  #%%%%%%%%%%%%%%$%%%%%%%%%$$%%%oo$%%%%%%%&&&&%%%#%%%%%%%%",
"$$&&&&$ ###&&&&&&&&&#o@%%%%%%%%###&&&&# ###%%%%%&&&&#o#%%%%%%%%#",
"%%&&&&$o  ##&&&&&&&&oo@%%%%%%%##&&&&&&$   ##%%%%&&&&oo#%%%%%%%##",
"&&&&%%%%#  $##&&&&&&# #%%%#%%%#%&&&&&&%%#  ###%%&&&&$o$%%%#%%%#%",
"&&&&%%%%%#  &##&&&&&%%  ###%%%#%&&&&&&%%%#  %##%&&&&%%o ###%%%#%",
"%%%#%%%%%%# o&#&%%%%%%% #%%%%%#%&&&#%%%%%%#  %#%&&%%%%% #%%%%%#%",
"%%%#%%%%%%$%%&&&%%%%%%% $%%%%%%%&&&#%%%%%%#%%%%%&&%%%%% #%%%%%%%",
"%%%$%%%%%%%%%%&&%#%%$#% %%%%%%%%&&&#%%%%%%%%%%%%&#&%$$% %%%%%%%%",
"%%%$%%%%%%%%%%&&## $$%% %%%%%##%&&&#%%%%%%%%%%%%## #$%% %%%%%%%%",
"%%%##%%%% ##&&&##  #%%%%$%%%&o#@&&&##&&&% ##%%%##oo#&&&&$&&&&&&&",
"%%%%#%%%% #%&&&# %##%%%$$%%%$&o%#&&&#&&&% #%%%%#o&##&&&##&&&&&&&",
"%%%%#%%%%##%&&&$%%#%%%$$ %%%%$oo#$&&#&&&%##%%%%#%%#&&&## &&&&&##",
"##%%%%%%%# %&&$%%%$%%%$ %$%%%%%o #&&&&&&%# %%%#%%%#&&&$o&#&&&&& ",
"  %%%%%%%%%%%%%%%%$%%%$ %$%%%%$$ #&&&&&&%%%%%%%%%%#%&&$ %#%%&%  ",
"# %%%%%%%%##%%%%%%%%%%$ %$%%%%%$ o&&&&&&%%##%%%%%%%%&&$ %@%%&o #",
"#  %%%% ###%%%%%%%%%%%%%%%%%%%%%# &&&&&.###%%%%%%%%%&&%%%%%%  ##",
"#%#%%%% #%%%%%%%%%%%%%%%%%%%%%%%% &&&&&o#%%%%%%%%%%%%%%%%%%% ##%",
"&%$&&&&&#&&&&&&&%%%%%%%%%%%%#%%%%%  %%%$%%%%%%%%%&&&&&&&&&&#&&&&",
"&%$&&%$&#&&&&&&##%%%%%%%%%%##%%%%  %%$%$%%%%%%##%%&&&&&&&&##&&& ",
"&&&&$$$%&&&&&&##%%%%%%%%%%%#%%%%% %$$$%%%%%%%##%&&&&&&&&&&#&&&  ",
"$$%$%%&&&&&&&&#&%% +%%%%%%%%%%#% %#%%%%%%%%%%#%%& $&&&&&&&&&&# &",
"%&&$%%%&&&&#&&&&%#  #%%%%%%%&##oo&#&%%%%%%#%&&&&$  #&&&&&&&&## &",
"%&&%%%&&##.#&&&&#   #%%%%#%%&#&o%&&&%%%$# #%&&&#oo #&&&&#&&&#&&#",
"&&&&% &&..#&&&&&   #%%%%%##%&#&&%%&& &% o#&&&&&o  #&&&&&##&&#&&&",
"&&&&%oo#o&&&&&&&%%   %% ##%%&#&&%%&&  $ &&&&&&&&&   &&o##%&&#&&&",
"&$&&&$  #&&&&&&&%%%%&%&$# &&&&&&#%%%#oo#%%%%&&&&&&&&%%#$ %%%%%%%",
"$$&&&&& #&&&&&&&%%%%&$%$#&&&&&&##%%%&& #%%%%&&&&&&&%$%#$%%%%%%%%",
"#%&&&&& #&&&&&&& #%%$$%&#&&&&&&#%%%%&& #%%%%&&&o$%%$$%&$%%%%%%#%",
"%%&&&&&&##&&&&&& #%%#$&&&&&&&&#&%%%%&&&##%%%&&& $&%$$%&&%%%%%##%",
"%%%%&#%%&&#&&&& $ &&%$%%&&&&&$$&%%%%$%&&%#%%%% # &&&$%%&&&&&#$%%",
"%%%%&##%&&&&&&o#$&&&%$&%&&&&&& &%%%%$$&&%%%%% $$&&&&$&&&&&&&% &%",
"%%#%%%###&&&&&$#&&&&&&&$$#&&&&&&%$%%%$$$%%%%%#$%&&&&%&$$$%&&&&&&",
"%##%%%  #&&&&&&&&&&&&%%$&&&&&&&%$$%%%  $%%%%%%%%&&&&%%$&&&&&&&&&",
"##%%&&$ $##%%&&&%%%%# #%%&&&&&&$#&&&&#o###&&&&&&&&&$ #%&&&&&&%$%",
"%%%%&&$   ##%&&&%%%%  #%%%&&&&$%&&&&&# o ##&&&&&&&&  #%%&&&&&$$&",
"%%%%&&%%#  ##$&&%%%%@ #%%%$%&&$&&&&&&&&#  ###&&&&&&$ $%%&$%&%$%&",
"%%%%&&%%%$  %$$&%%%%%%  $$$&%%$&&&&&&&&&# o&##&&&&&&%  #$$%%%$&&",
"%%%#%%%%&&$  &$%%%%%%%% $%&&&&$%&&#&&&&&&#  &#&&&&&&&& #&&&&&$%&",
"%%%#%%%%&&$&%%&&%%%%%%% $%&&&&&&&&#&&&&&&#&&&&&&&&&&&& #&&&&&&&&",
"%%%#%%%%&&&&&&&&%#%%##% %&&&&&&&&&#&&&&&&&&&&&&&#&&##&o%&&&  &&&",
"%%%#%%%%&&&&&&&&## ##%% &&&&&&&&&&#&&&&&&&&&&&&##o##&& %&&&& &&&",
"&&&##&&&& ##&&&#$  #&&%%#&&&&&& &&##&&&& ##&&&## o#&&&&#&&&&  &&",
"&&&&#&&&& #&&&&# &$$&&%##&&&&&&  &&#&&&& #&&&&+ &##&&&##&&&&& &&",
"&&&&#&&&&##&&&&#&&$&&&##o%&&&&%% &&#&&&&+#&&&&#&&#&&&## &&&&&&&&",
"&&&&&&&&&$ &&&#&%%$&&&#o%#&&&&%% &&&&&&&#o&&&#&&&#&&&# &$&&&&&&&",
"o&&&&&&&&&&&&&&&&&$&%%# %#%%&&&%.&&&&&&&&&&&&&&&&#&&&# &#&&&&&&&",
"o &&&&&&&&##&&&&&&%&%%# %#%%&&oo&&&&&&&&&##&&&&&&&&&&# &#&##&&&&",
"%o&&&&& ###&&&&&&&&&%%%%%%%%&&o&&&&&&&.###&&&&&&&&&&&&&&&&  $&&&",
"%&o&&&& #&&&&&&&&&&&&%%%%%%%&&&&&&&&&&.#&&&&&&&&&&&&&&&&&&# $&&&"
};
