/* XPM */
static char *a3b50646c4c34ff4d3d82b98f7bad887aY9Ie6QlRAdyae0l[] = {
/* columns rows colors chars-per-pixel */
"64 64 54 1 ",
"  c None",
". c black",
"X c #010000",
"o c #000100",
"O c #010100",
"+ c #000001",
"@ c #010001",
"# c #000101",
"$ c #010101",
"% c #D01A1A",
"& c #D11A1A",
"* c #D01B1A",
"= c #D11B1A",
"- c #D01A1B",
"; c #D11A1B",
": c #D11B1B",
"> c #EE3030",
", c #EE3130",
"< c #EF3130",
"1 c #EE3031",
"2 c #EF3031",
"3 c #EE3131",
"4 c #EF3131",
"5 c #F43434",
"6 c #F53434",
"7 c #F43534",
"8 c #F53534",
"9 c #F43435",
"0 c #F53435",
"q c #F43535",
"w c #F53535",
"e c #129496",
"r c #139496",
"t c #129596",
"y c #139596",
"u c #129497",
"i c #139497",
"p c #139597",
"a c #1ACCD0",
"s c #1BCCD0",
"d c #1ACDD0",
"f c #1BCDD0",
"g c #1ACCD1",
"h c #1BCCD1",
"j c #1ACDD1",
"k c #1BCDD1",
"l c #C8BEBE",
"z c #C9BEBE",
"x c #C8BFBE",
"c c #C9BFBE",
"v c #C8BEBF",
"b c #C9BEBF",
"n c #C8BFBF",
"m c #C9BFBF",
/* pixels */
"                                                                ",
"                                                                ",
"                                                                ",
"                                                                ",
"                                                                ",
"                                                                ",
"    +++++                                              +++++    ",
"    ++ffk+++++++                                +++++++kfk++    ",
"     +krykffkkfk+++                          +++kgfafffiik+     ",
"     +kryyikkkaaak+++                      +++kffgfffiiiik+     ",
"     +gryiiiuukaaakk++                    ++akffgkttiiriif+     ",
"     +krrriiirreiakkk++                  ++kkffirrittirrif+     ",
"     +frttttiiiiittkfk+                  +ffkiiirrrrryryyj+     ",
"     +frtttiiitiiir+++++o++oo      ++++++++++iiirreeyyryyf+     ",
"     +kfrritiiit++++kfkkkkkk+oo+++++kfkkfkkk++++iiurtyyisk+     ",
"     ++firii++++kkkkffaakkkkjdj+kkkkkffkkkkkfkkk++++iiiyk++     ",
"      +kii+++kjddfjjajjjjjd+jjk+kkk+jjaakkaaffkgfkf+o+yyk+      ",
"      +fk++kkfjjakaajjjjjaj+ddf+k++jjjjakkaagkgkffkkj++kk+      ",
"      ++j+jakaaajjjkffdjaaii+ii++iutuukkakaaakkkaakfjd+j++      ",
"        ++jjkkkajjfkaiiiiiaaj++k+kaakkuuttikafksaakfjj++        ",
"        +kfakfkfakkkiiddkkfak+kk+kfkjjjkaatukkkskakaaja+        ",
"       +kjfkfkfkakkkadjjgakk+kkk+kafjjjkaakkkkkkkaakjjkk+       ",
"       +kadjaaf+++++kkjjfggkkk+k+kfaajkakkkk+++O+fkkjfkf+       ",
"       +kjjjaj+====++djdaggfk+f++aaakaaaakk+O*&*=+kkdjkko       ",
"       +kkkkf++=*+==++kkkkakk+k+k+jk+kkkak++==+*:+#ajaaa+       ",
"       Oskkkk++===**+kkfkgaa+kk+kk++fkafafk+****:+#kjaaa+       ",
"       +akfikk+++**++kakkkakfkk+kkkdaaaiifk++**+++jkjjako       ",
"      ++fffijjjkk+++jjjaaaaakkk+kaajkkkkiikk+++kkkjakkaa+o      ",
"      +kaaktuiukkkkfaakiaakkkak++kkkakakkuukkakakiifkakks+      ",
"      +kaakjaauuikfriiitakkjak++++kjkaaajjiiiittiikkfffak+      ",
"      +kakajajjkiiirfaaaajjja++nq++jajakjjaaaaaaaaffkkkkk+      ",
"      +kakaajajjkkfaaaaaaajj++qnqmoojaakakjaakkakakkfkkkk+      ",
"      +kajaakjjafkffkakkkk+++mllmmq+++fkffkaakkkkkaaakkaa+      ",
"     +fkajjkajjak++kakkk+++q7mmq7qxm7+++kkkkk++kkkakaakkkk+     ",
"     +kfjjaajjkak++++++++mmqlqml7lmlc67++++++++kkkkkkakkkk+     ",
"     +kkjjkkjjkjkk+qq7nm77mmmlqmllmxlqql<<<<7+kkaaaaaaakaa+     ",
"     +kkkujkjjkakk+++<<qlq7lmmmlmqlllmmmqq+<<+aakkakajikjko     ",
"     +kkauakjjajkkkk<<+++7qlq77mllql66q++++k<<akakkkakikjk+     ",
"     +jjayiaajjakgka<<kk++++++++++++<+++kajjk<aaajajautkjj+     ",
"     ojjjjiaakakkgga<<fkkfkkkkfk++kk<kkkkkkjj<ajjjjjjtjkkj+     ",
"     ++kjjiyyjdjkgaj3jjjjjkkak++kk+f<kakajjjj,3afffiyyjkk++     ",
"      +kjjjjyiijkgja3jkkjjkk++k+kk+k<<ajjjkkaa<kaiiiddjsk+      ",
"      +faakkjaiiakaa33kkaak+kkk+kf+kj3jjaaajfa<kiikkkdjdf+      ",
"      ++akkkkfjaaaaaa3kkkkk+kkk+ffk+jjjjjkjjkk<kaaffkkjj++      ",
"       +jjjkkkkkjjkjajjjaaaa+kk+kkffkkaajjkkaakkadjdjdjd+       ",
"        o+jkkkkkaakjajjjakaafk++++kkakakjjjjjjjjjjfkkj++        ",
"         o++aakkaakakajkkfkkf++ii++kkaaakaajkjjjkkaa+++         ",
"           +++++++akkkkkkkkf++itii++aakkkajjaj+++++++           ",
"            ++++++o+++++++++iiititii++++++++++++++++            ",
"         ++++kfiiuyiyiiiiiiikfttiikaiiiriiiiyiiiiij++++         ",
"        +okfkkfkaaiiyikkkaffffditfkakkkkkkiiyiffkkkfkf++        ",
"        +kkkkk++aaafdk++akkkkdy++afkkfkk++kkffkf+ojkkkf+        ",
"       okkfdf+++kkkkk+OO+kfkki+o++kkkkf++++ffkfk+ookkskk+       ",
"      o+kkkj++ ++kkryO   +ffi++  ++ffi+   +iysk++ ++iykk++      ",
"      +jfai++   +kky++   ++ki+    +fi++   ++ykko   ++yjkk+      ",
"      +jati+    +kyy+     ++i+    +i++     +yyk+    +yyfk+      ",
"     +kkii++    ++y+O      O++    +++      o+yoo    ++yykk+     ",
"     +fii++      +++       ++      ++       ++o      ++yik+     ",
"     +yy++       O+         +      +         ++       +oik+     ",
"     +y+         +O         O      +         ++         +k+     ",
"     +++         ++         +      +         ++         +++     ",
"     ++                                                  ++     ",
"                                                                ",
"                                                                "
};
