/* XPM */
static char *_596b82a06464cc1eb88a1b2d0ef6915PYWgwNWMEHRul98l[] = {
/* columns rows colors chars-per-pixel */
"64 64 37 1 ",
"  c None",
". c black",
"X c #010000",
"o c #000100",
"O c #010100",
"+ c #000001",
"@ c #010001",
"# c #000101",
"$ c #010101",
"% c #D01B1A",
"& c #D11B1A",
"* c #D01A1B",
"= c #D01B1B",
"- c #F43434",
"; c #F53434",
": c #F43534",
"> c #F53534",
", c #F43435",
"< c #129496",
"1 c #139496",
"2 c #129596",
"3 c #139596",
"4 c #129497",
"5 c #139497",
"6 c #139597",
"7 c #1ACCD0",
"8 c #1BCCD0",
"9 c #1ACDD0",
"0 c #1BCDD0",
"q c #1ACCD1",
"w c #1BCCD1",
"e c #1ACDD1",
"r c #1BCDD1",
"t c #C8BEBE",
"y c #C8BFBE",
"u c #C8BFBF",
"i c #C9BFBF",
/* pixels */
"                                                                ",
"                                                                ",
"                                                                ",
"                                                                ",
"                                                                ",
"                                                                ",
"                             ............                       ",
"                            ..r...rrrr$.                        ",
"                           ..r..rrrr86.                         ",
"                           .r..rrrrr6.                          ",
"                           .r.78rrr6.                           ",
"                           ...rrrr6..                           ",
"                      .....6<......rr.....                      ",
"                    ...rrrrrr<6666rrrr<<6...                    ",
"                   ..r9rrrrrrrrrrr9rrrrr886..                   ",
"                   .rrrrrrrrr77rrrrrrrrr8886.                   ",
"                   .66<<rrrrrrrrrrrrrrrr8r86.                   ",
"                   .rr815rrrrrrrrrrrrrrrr886.                   ",
"                  ..rr8r77rrrrrrrrrrrrrr8r86..                  ",
"                  .rr...7rrrrrrrrrrrrrrrrr886.                  ",
"                 ..r.&%%.rrrrerrr9rrrrrrrrrr6..                 ",
"                 .r.&.%&.rrrrrrrr977rrrrrr8r86.                 ",
"                 .r.%&%.rrrrrrrr7rrr8rrrrrrr86.                 ",
"                ..rr...rr76rrrrrrrrrrrrrr8rr86..                ",
"                .rrr88rr6668rrrrrrrrrrr7rrr08r6.                ",
"                ..6r88r668r8rrrrrrrrrrrrrrr9rr6.                ",
"                 .r666668rrrrrrrrrrrrrrrrr9rr11.                ",
"                 ..r8888r.r8rrrrrrrrrr7rrrrr711.                ",
"                 u..8888..rrrrrr9r79rrrrrrrr066.                ",
"                 uu.....$.rrrrrr7r9rrrrrrrrr866.                ",
"                 u:-i:u:..rrrrrrrr9rrrrrrr88866.                ",
"                 :uu:i::.rrrrrrrrrrrrrrrrr88066.                ",
"                -uuu-i.-.rrrrrr8778rrrrrrrrrr61.                ",
"                --uu-..-rrrrrr8rr7888rrrrrrrr<6.                ",
"                ..-.-rrrrrrrrrrrrrr7w6rrrrrr7<1.                ",
"               : .-r-rrrrrrrr8rrrrrr56rrrrrrr5.                 ",
"               : .rr-reerrrrrrrr886<1rrrrrrr75.                 ",
"                 .rrr-rrrrrrr8rr611r8rrrrrrr86.                 ",
"                 .rre-rrrrrr888618rrrrrrrrrr86.                 ",
"                 .rrrerrr666666888rr7rrrrrr886.                 ",
"                 ..rrrrrrrr8rr8r88rrrrrrrrrr6..                 ",
"                  .8rr8rrrr8rrr88r8rrrrrrrrr6.                  ",
"                  ..rrrrrrrr8rrrrrrrrr88rrr<..                  ",
"                   ..rrrrrr8rrr8rrrrrrr8rr6..                   ",
"                    .$rrrrrrrr88rrrrrrw1<<..                    ",
"                     ...88rrrr88rrrrr616...                     ",
"                       ...666666665666...                       ",
"                    ..$516............6<6...                    ",
"                   .6668r866666666666688rrr6.                   ",
"                  ..88rrrr88rr88888r8r88rrr6..                  ",
"                 ..68rrrrrrr8r88rrrr8r88rrrr8..                 ",
"                ..6r88r.rrrr886.rrrrrr..rrrr86..                ",
"                .68r886.rrr8r6...rrr...6.rrrrr6.                ",
"                .rrr86..$8rr6..6.r6..166..rrr86.                ",
"               ..r886..6..r8...6.86..6665...886..               ",
"               .8886..6...r6.  ..86. .<55....886.               ",
"               .rr...6.. .6..   .86. ..6..  ..86.               ",
"               .r8. ...   ..    ..5$  ...    ..6.               ",
"               .6..  .    ..     ..    ..     ...               ",
"               ...   .    .       .    .       .                ",
"                .                                               ",
"                                                                ",
"                                                                ",
"                                                                "
};
