/* XPM */
static char *_b920dc88b97492790a1f54f6a602b5985Y1GsAFAPfBd50L[] = {
/* columns rows colors chars-per-pixel */
"64 64 34 1 ",
"  c None",
". c black",
"X c #010000",
"o c #000100",
"O c #010100",
"+ c #000001",
"@ c #010001",
"# c #000101",
"$ c #010101",
"% c #D01B1A",
"& c #D11B1A",
"* c #D01B1B",
"= c #F43434",
"- c #F53434",
"; c #F43534",
": c #F43435",
"> c #129496",
", c #139496",
"< c #139596",
"1 c #129497",
"2 c #139497",
"3 c #139597",
"4 c #1ACCD0",
"5 c #1BCCD0",
"6 c #1ACDD0",
"7 c #1BCDD0",
"8 c #1ACCD1",
"9 c #1BCCD1",
"0 c #1ACDD1",
"q c #1BCDD1",
"w c #C8BFBE",
"e c #C8BEBF",
"r c #C8BFBF",
"t c #C9BFBF",
/* pixels */
"                                                                ",
"                                                                ",
"                                                                ",
"                                                                ",
"                                                                ",
"                                                                ",
"                       ++++++++++++                             ",
"                        ++qqqq+++q++                            ",
"                         +<6qqqq++q++                           ",
"                          +,qqqqq++q+                           ",
"                           +<6q6q7+q+                           ",
"                           ++,qqqq+++                           ",
"                      +++++qq++++++<<+++++                      ",
"                    +++<<,qqqq<,<<,qqq5qq+++                    ",
"                   ++<qqqq6qqqqqqqqqqq77q6q++                   ",
"                   +<qq6qqqqqqq6q55qqqqqqqq6+                   ",
"                   +,6qqqqq6q5qqqq6q6q66,<<<+                   ",
"                   +,6qq6qqqqqqq6qqqqqq,,q6q+                   ",
"                  ++<qqq655qqqqq66qqqqqq56q7++                  ",
"                  +,qqq7q5q5qq6qqqq6qqqq+++qq+                  ",
"                 ++,6qqqqqqqqqqqqqqqq6q+&%%+7++                 ",
"                 +<qqqqqqqqqqqqqqq6qq6q+&&+&+q+                 ",
"                 +,qqq77q6q5qq6q99q5qqq6+&&&+q+                 ",
"                ++,5qq5qqqqqqqq69999q<q65+++6q++                ",
"                +<6qq55q56qqqqqq99qqq333qqqqqqq+                ",
"                +<qqqqqq56qqqqqqqqqqqq6,,qqq6,++                ",
"                +,<qqqqqqqqqqqqqqqqqqq66<,,<,q+                 ",
"                +,,56qqqq5qqqqqqqqqq66+qq5q66++                 ",
"                +<,6qqqq59qq6q6qqqqq9q++66qq++t                 ",
"                +<,q5qqq99qqqq6qqqq6qq+++++++rt                 ",
"                +<,qqqq6qqqqq6qqq6q6qq++=w-r;;t                 ",
"                +<,7qq56qqqqqqqqqqqqqqqO--r;rr-                 ",
"                +,<qqqq699qqqq55qqqqq6q+;+r;rrt=                ",
"                +<<qqqqq9955qqqqqqq7qqqq-O+-rr;;                ",
"                +,<qqqqqqq,6qqq5qq7qq6qqqqq=+;++                ",
"                 +3qqqqqqq,,qq5qqq77qqqqqq6=6-+ -               ",
"                 +,6q69q69q3,<q5qqqq566qqqq=qq+ -               ",
"                 +,66q9q996qq,,,6qqqq5qqqq=qqq+                 ",
"                 +,qqq6qqqqqqq6,,q6qqqqqqq=qqqO                 ",
"                 +,qqqq6qqqqqqqqq,,,,226qq6qqq+                 ",
"                 ++<7qqq5q6qqqqqqqqqq5q6q9qq6++                 ",
"                  +<5q56qq5qqqq5qqq5qqq6q5qq6+                  ",
"                  ++,q6qqq65qqqq55qq5qqqqqqq++                  ",
"                   ++,qqq6qqqq556qqqq5qqqq6++                   ",
"                    ++<,,6qqqqqq6qq5qq56qq++                    ",
"                     +++,,,q5qqqqqqq6qqq+++                     ",
"                       +++,,,,<<2<,<<<+++                       ",
"                    +++<,,++++++++++++<,,+++                    ",
"                   +<qqqqq,,,,,,,,,,,,qqq,,,+                   ",
"                  ++,qqqqqq6qqqqqq6qqq7qqqq7++                  ",
"                 ++qqqqqqqqqqqqqqqqqqqqq6qqq<++                 ",
"                ++<qqqqq++qqqqqq+,5qqqqq+qqqq<++                ",
"                +<qqq7q+<+++qqq+++<qqqqq+<qqqq,+                ",
"                +,qq6q++,<<++<q+<++,5qq+++,5qqq+                ",
"               ++<qq+++<,,,++,7+,+++qq++<++<qqq++               ",
"               +<qq++++<,,+ +<q++  +,q+++,++<qq<+               ",
"               +<q++  ++,++ +,5+   ++,+ ++,+++qq+               ",
"               +<++    +++  +,++    ++   +++ +<q+               ",
"               +++     ++    ++     ++    +  ++<+               ",
"                +       +    +       +    +   +++               ",
"                                               +                ",
"                                                                ",
"                                                                ",
"                                                                "
};
