/* XPM */
static char *_4743dbe563640abeaab1efd504c0e9cDGqQYNvUmQubokip[] = {
/* columns rows colors chars-per-pixel */
"64 64 24 1 ",
"  c None",
". c black",
"X c #010000",
"o c #000100",
"O c #010100",
"+ c #000001",
"@ c #010001",
"# c #000101",
"$ c #010101",
"% c #129496",
"& c #139496",
"* c #129596",
"= c #139596",
"- c #129497",
"; c #139497",
": c #139597",
"> c #1ACCD0",
", c #1BCCD0",
"< c #1ACDD0",
"1 c #1BCDD0",
"2 c #1ACCD1",
"3 c #1BCCD1",
"4 c #1ACDD1",
"5 c #1BCDD1",
/* pixels */
"                                                                ",
"                                                                ",
"                                                                ",
"                                                                ",
"                                                                ",
"                                                                ",
"    ooooo                                              o@oo@    ",
"    oo;;;ooooooo                                oooooo@:;;oo    ",
"     o:,;;::::;;ooo                          ooo::::::::;;o     ",
"     o:,,,55,55;;;ooo                      ooo::::,5,,,5,;o     ",
"     o:,,,5555555;;;oo                    oo:::5,,55,555,:o     ",
"     o:,,,555555555;;oo                  oo;:5,55,555555,:o     ",
"     o:,555555555555;;o                  o;;5555,5555555,;o     ",
"     o;,5555>555555oooooooooo      oooooooooo555,,55,555,;o     ",
"     o;;55555555555o:;;;,>55oooooooo>555;;;;o,,,555,55,,::o     ",
"     oo;>5>555555555>>55,>5>55oooo5>2255;;,<3,,,55555,,,;oo     ",
"      o;55555<5<<5<<<2555>55oooo>oo5<555;5<<555455555555;o      ",
"      o;;55555<<255252555>5oo5>o55oo5555<4425554555555o;;o      ",
"      @o;5<2<525<52<5555555o555o55<5<55555525544445255o;oo      ",
"        o552<52<<522<55555o5555oo555555555555244542255oo        ",
"        o555>55<>55<55555>555oo5o5>5<4455555522424<55<2o        ",
"       o52555<55555<5555<555oo55o555<25555555555445<<<25o       ",
"       o<2<<5555555555555<5oo5>5o>>55255555555554<4<5<52o       ",
"       o255522<555555555<55>5>5oooo555555555555544<55525o       ",
"       o35552555555555555555>55o55o5555555154125551,<225o       ",
"       o,,>5555555555555555<5>5o55oo55>5555155555511422<o       ",
"       @22>22555><555555<5>5>5oo>555oo551555555555114422o       ",
"      oo5222555555>55555555555o555555>>54455525555444455oo      ",
"      o,5522555555555555555o55o5555555555555555555555552,@      ",
"      o,5525<55<5<555555555oo5o55ooo55551455555555555555,@      ",
"      @,5552<<555555><555555ooo5oo5555555455555555555552,o      ",
"      o,55;55255<5>5555555555ooo555>555>55555555555522525@      ",
"      o5<<;522252255551555555,5o555555552225555552555;<52o      ",
"     o555;;<<<22555555555555555o55555555555555555555<;;<55o     ",
"     o;;;;<<5555555555555255555oo555555555555555555555;;;;o     ",
"     o55<<55252555255555555555o5o5555555555555555<5555<55<o     ",
"     o55<5<,55555555552555,ooo55o55555555555555522<5555<,,o     ",
"     o55<<,,55555555555555555555o5555>55555552525<2555<253o     ",
"     o5555,,<555555555,555255525o55555>5552552>5<255555255o     ",
"     o5555,,55225552222,55555552o555>555555552>5225<552<55o     ",
"     oo555555555552<444455555522o5>555555555555><55555555oo     ",
"      o>555555555525<<445555o5ooo5ooo5555>>55555555552255o      ",
"      o522555555555555445>oo>o>o5oo>5o<<5>555555555552555o      ",
"      oo25>>5525555555545o>>>52o555555o255>5555555552522oo      ",
"       o55552555225<5<455>>>5>5o5>5552<2222222552255>5>2o       ",
"        oo552555<5542225>555>5oooo5522<255224455552<55o@        ",
"         ooo2<55<<4<<<2<<555>oo;;oo>2255522544<55522ooo         ",
"           ooooooo<4422<55>5oo*;;-oo225222554<ooooooo           ",
"            oooooooooooooooo;;;;;;;-oooooooooooooooo            ",
"         oooo,;;:&;;;;;;;;;;55;;;;55--;;;;;;;;;;;5;oooo         ",
"        @o;;;:3,,<;::;>55555<5>;;<5555,5>>;;;;5555;;;;oo        ",
"        o5;53,oo;<<<>3oo5>5553;oo;2>>53;oo5<<<>;oo555;;o        ",
"       o5,,,>ooo;35<3o@@o5>>;;oooo;>,,:oooo,,5<;ooo3<>;<o       ",
"      @o,,::oo oo;<;:o   o;>;oo  oo;,;o   o::,:oo oo5>55oo      ",
"      o255:@o   o;3:oo   oo;;o    o;;oo   o@;,;o   oo;><,o      ",
"      @25;:o    o;;:o     oo;o    o;oo     o;;;o    o;;55o      ",
"     o55;;oo    o@:oo      @o@    ooo      @o:oo    oo:;>,o     ",
"     o5-;oo      ooo       o@      oo       ooo      oo;;5o     ",
"     o,:oo       @o         o      o         o@       oo;;o     ",
"     o,o         oo         o      o         @o         o;o     ",
"     ooo         @o         o      o         o@         ooo     ",
"     oo                                                  oo     ",
"                                                                ",
"                                                                "
};
