/* XPM */
static char *_e3dfb36344e443e89fe9a8f04ea14b6h0UvtR8KMAzKzt6T[] = {
/* columns rows colors chars-per-pixel */
"64 64 33 1 ",
"  c None",
". c #58605A",
"X c #59605A",
"o c #58615A",
"O c #59615A",
"+ c #58605B",
"@ c #59605B",
"# c #58615B",
"$ c #59615B",
"% c #7A847C",
"& c #7A857C",
"* c #7B857C",
"= c #7A857D",
"- c #8C8A62",
"; c #8D8A62",
": c #8C8B62",
"> c #8D8B62",
", c #8C8A63",
"< c #8C8B63",
"1 c #86948A",
"2 c #87948A",
"3 c #86958A",
"4 c #87958A",
"5 c #86948B",
"6 c #87948B",
"7 c #87958B",
"8 c #92A096",
"9 c #93A096",
"0 c #92A196",
"q c #93A196",
"w c #93A097",
"e c #92A197",
"r c #93A197",
/* pixels */
"                                                                ",
"                                                                ",
"                                                                ",
"                                                                ",
"                                                                ",
"                                                                ",
"                        $$$$                                    ",
"                   $$$$$qq8$$                                   ",
"               $$$$qqqqqqqqq$$                                  ",
"             $$$6222qqqqqqqqqq$                                 ",
"            $$22222&&&$qqqqqqq$:-                               ",
"           $222222&&$$$$$qqqqq2:$           $$$$$$$             ",
"          $$22&&&&&$$qqqqqqq22::$         $$2:-qrrq$-<          ",
"          $22&&&&$$$qqqq2262:::2q$       $$q2:::-<><r$$$        ",
"          $22&&$$$qqqqq2::--:::2q$      $$&$:2::>2$$-rr$$$      ",
"         $22&&$$qqqqqq6::22<:::$$q$    $$2&<o$2::22q-$r8q$$     ",
"         $22&&$qqqq222::-:::::::qq$   ##22:&&$#:>:22:q$qqq$$    ",
"         $$22&$qqq2:<:::>>::$$2:qq$$$$2222:2&&#o$->:22qqqqo$    ",
"         $$$2&$q22:2<:::$X$$$q2:<q$$222222:22&&&$$$::222$o$$    ",
"         $&$$$$2:::2<:$:$qqqqq2qqqq$222222q:222&%%$$$<$$$qq$    ",
"         $%qq$$$-$$$$$$<qrqqrr55qqq$222222qqq22222222:qqqqq$    ",
"        o%&qqq22-qqqqqq<qrqqrrrqqqqq$22222qqqqqqq2222::qqqq$    ",
"        $%%qqq2:<qq8qqqqqqqqrqqqqqqq#222322qqqqqqqqqq2:qwqq$    ",
"        $%%qqq2:qqqqqqqqqqqqqqqqqqqq##222322qqqqqqqqq2:qqqq$    ",
"        $%%qqq2qqqqqqqqqqqqqqqqqqqqqq##22222qqqqqqqqq2rqqqq$    ",
"        $%%qqq2qqqqqqqqqqqqqqq8qqqqqwq$222222qqqqqqqq2qqqqq$    ",
"       $&&%qqrrrqqqqqqqqqqqqqqqqqwqqqq$$222222qqqqqqqqqqqqq$-   ",
"       $&&&qqrrrqqq&%qqqqqqqqqqqqqqqqqq$2222222qqqqqqqqqqqq$<   ",
"       $&&qqqqrrq&%%$$$$$$o$oq8qqqqqq&&$222222222qqqqqqqqq$$<   ",
"       $&&qqq&&&&&$$rrqqqqqqq$$$$$$q&&&$$22222222qqqqqqqqq$ <   ",
"      $&&&qqq&&&$$9rqqqqqqqqqqqqqqq$$&&&o22222222qqqqqrrq$$<<   ",
"      $&&qqq&&$$8rrrqq221--::qqqqqqq2$$&o222222222qqqr%%%$<<    ",
"      $&qqq%%$oq2222221q<---::qqqqq2:<q$$&222222&&&&&&&&&$:     ",
"      $&qq%%$$q22qqq-->>4---::::qqq2q<<qq#$&22&&&#$$##$$#$$$$   ",
"     $&&q&%$$qq2q:>><211-422555::qq22q<qqqq$$&&$#qwwqqqqqqqq$   ",
"     $&&q&$$qq22::$$$$$$$$$$$$##:<qqq2<<qqqq$$$$qqqwqwqqqqqq$   ",
"     $&&&&$qq$$::qqqqqqqqrrrqq0#o:qqq2q:qqq&&$qqqqqqqqqqqqqq$   ",
"     $&&&$$$X2q::qqqqqqqrrqrqqqq$:qqq2::qq&&$qqqqqqqq$$qqqqq$$  ",
"    $$&&&oqq22<<:qqqqqqqqqqqqqqq2:qq22:qqq&$qqqqqqq#$$$$qq<qq$  ",
"    $&&&$q222:><:qqqqq8qqqqqqqqq2:q22:qqq&&$qwqqqq#qqqwqq2<qq$  ",
"    $&&$$22:::<<qqqqqqqqqq0qqqwq2qq2q:qq&&$qqqqqqoqqqqqq22:88X  ",
"    $&&$2-::q:--qqqqqqqqqqqqqq8qqq22:<qq&$$qqqqq$oqq22q22:qqq$  ",
"    $&$$5-8q:::qqqqqqqqqqqqqqqqq222::qq&%$qqqqq$$qqq2222::qqq$  ",
"    $$$45<qq::-qqqqqq0q0qqqqwqqq2q-:qqq&&$qqqq$$qqqq2:qq::qqq$  ",
"     $*45:qq::qqqqqqqqqqqqqqqqqw2q:qqqq&$qqq8$$qqqq22:::q-qq$$  ",
"    $$%4::qq:qqqq8qqqqq8qqqqqqq22q:qqqq&$qqqqqqqqq22qq::<qqq$   ",
"   $$*&-:qqq:qqwqqqqqqqqqqqqq222:::qqqq$$qqqqqqqq22q<>22<<qq$   ",
"   $%<<-qqq:qqq888qqqqqqqq2222<::qqqqqq$qqqqqqqwq2q:<22<<qqq$   ",
"   $>>&%&qq:qqqqqqqqqqqqq22:::::qqqqqqq$0qqqqqqq23::222:qqq$    ",
"    >&&&&&q:qqqqqqqqqqqqq2q:qq2::qqqqqq$qqqqqqqq2q:22<:wqq$$    ",
"    >$%%&&&:qqqqqqqqqqqqq2q:q22:::::qq&$qqqq22222q::::qqq#$     ",
"    <<<%&&&:qqqqqqqqqqq222q:q22qq::::q&$oq22qq::::qqqqqqq$      ",
"      <<&&%<::qqqqqqqqq2w:::qq22qq--:q&&oq2q<<>22:::qqqq$       ",
"       -$&&&&::&&qqqqqq2q:qqqqq25q<<:8q&o$q:<qq2::2q::q$$       ",
"        <$$&&&:&&&&&%qq2::qqqqqw222q::q&%$ooqqq2:q222$X         ",
"        << $$$<o&&&%%%$<::#:#$$qq25q:::q&&&$$q22:ooo$           ",
"         <<<<<<<<<<X$$ -  <<::$$$$$$$$$$$$$$$$<<<<              ",
"                  <<  <-    :::<--  <<<<<<-<::<<<<<             ",
"                   <<<<      <<< <<<<      <:<   --<<           ",
"                                           <:       -           ",
"                                                                ",
"                                                                ",
"                                                                ",
"                                                                "
};
