/* XPM */
static char *_ebd2f88b5454799d68eb57305946e9cPhR1bwlTJQ5y43XJ[] = {
/* columns rows colors chars-per-pixel */
"64 64 78 1 ",
"  c None",
". c black",
"X c #010000",
"o c #000100",
"O c #000001",
"+ c #343030",
"@ c #353030",
"# c #343130",
"$ c #353130",
"% c #343031",
"& c #353031",
"* c #343131",
"= c #353131",
"- c #343A3E",
"; c #343A3F",
": c #353A3F",
"> c #343B3F",
", c #3C3E40",
"< c #3D3E40",
"1 c #3C3F40",
"2 c #3C3E41",
"3 c #505254",
"4 c #505354",
"5 c #515354",
"6 c #505255",
"7 c #505355",
"8 c #515355",
"9 c #565A52",
"0 c #575A52",
"q c #565B52",
"w c #575B52",
"e c #565A53",
"r c #565B53",
"t c #575B53",
"y c #CE1616",
"u c #CF1716",
"i c #CF1617",
"p c #CE1717",
"a c #CF1717",
"s c #7E807C",
"d c #7F807C",
"f c #7E817C",
"g c #7E807D",
"h c #7F807D",
"j c #7E817D",
"k c #3AB2AA",
"l c #3AB3AA",
"z c #3AB2AB",
"x c #3BB2AB",
"c c #3AB3AB",
"v c #3BB3AB",
"b c #B2C8E0",
"n c #B2C9E0",
"m c #B3C9E0",
"M c #B2C8E1",
"N c #B2C9E1",
"B c #B9D0E8",
"V c #B8D1E8",
"C c #B9D1E8",
"Z c #B9D0E9",
"A c #B8D1E9",
"S c #B9D1E9",
"D c #C4DEF6",
"F c #C5DEF6",
"G c #C4DFF6",
"H c #C4DEF7",
"J c #C5DEF7",
"K c #C4DFF7",
"L c #CAE4FE",
"P c #CAE5FE",
"I c #CBE5FE",
"U c #CAE4FF",
"Y c #CBE4FF",
"T c #CAE5FF",
"R c #CBE5FF",
"E c #FFFEFF",
"W c #FEFFFF",
"Q c white",
/* pixels */
"                                                                ",
"                                                                ",
"                                                                ",
"                                                                ",
"                                                                ",
"                                                                ",
"                                                                ",
"                                                                ",
"                                                                ",
"                                                                ",
"                                                                ",
"                                                                ",
"                                                                ",
"                                                                ",
"                            ===@====                            ",
"                          ===TTTTTT===                          ",
"                         ==DKTTTPTTTL+=                         ",
"                        ==TTTTTTTTTTLL**                        ",
"                       =HHHTTTTTTTTTLLLT=                       ",
"                      ==DDDHHTTTTTTTLLLL==                      ",
"                     ==HHHHHDHDLTTTTLLLLT==                     ",
"                     =HHDDHHHHHDDDHTLLLTTT=                     ",
"                    ==SSDDHHHHDDDLDDHLTTTT==                    ",
"                    =SSSSSAAAHDLDDDDHHHHTTT$                    ",
"                    @SSBSSSSSSSSDDDDDHHKHHU=                    ",
"                    =SSBSSSSSSSSSNALHHKDHHH=                    ",
"                   ==SSSSSSBSASSSSSSHHKKHHH@=                   ",
"                   =nbnSSSSSSSSSSSSZBBHKHHKK=                   ",
"                   =nnnnbnZZZZZSSSSZBSSSDDHK=                   ",
"                  =nnnnnnnbnnZZZSSSZBBSSBSDKH=                  ",
"                  =nbnnnnnnnnnnnnnZZZZSSSSBBL+                  ",
"                  *nbnnnnnnnnnnnnnnnnZZBSSSVV+                  ",
"                  =nnnnnn$$$======$$=$$SASASS=                  ",
"                  =nnnn@$rrrrrrrrrrrrrq==SSSS*                  ",
"              ========$=rrqqrrrrrrrrqqqq*==*======              ",
"          =====tqqqqqqqqqrrrr==%==*rqqqqqtqqqqqqq=====          ",
"        ===qttttqqqqqqqqqqqq%%vvvv==qqqqtttqttttqqttt=%%        ",
"      ==fft*===tqqqqqrqqqqr$%cXvvXv==qqqqqqqrttt===3=fhh==      ",
"      =hjhhhjjh3=3@=rqrr=$$$vcvXXvvv====tqtt==3==hhhfjhhj=      ",
"      =3jhhhjhhjhtf=====ff=lvXxvvvXvv3ht=====fhhthhhjjjh*=      ",
"       ==hhfjhhhhhjjhhhhhh3vvOpvvpXvv=hhjhjhhhhhjhhhhhf==       ",
"        ==hhhhhhhhjjjhhjhj=vvvvvvvcvv=hhjjhhhhhhjhhhht==        ",
"          ==hhhthhhjgghjhh=xvvOvvXvcv=hhgghhfthhjjhh3=          ",
"           ==hhjhhhhghhhht==vvvXXccc=3htggghfhhhhjh==           ",
"             ==hhhtfg%====qq====*===qq==%%*ffthhh==             ",
"               ==h3=%%ttqtqq=pppppp=qqqqrr$$=3h=&               ",
"                ==qqrrttqqqq=upEEpp=qqqqrrrrtt==                ",
"                  ***rrrqqq0=uEppEp=qqqqrrr===                  ",
"                    ==========EppE$=*=======                    ",
"                    ==    777=$====878    =@                    ",
"                   ==  777777777878747777  ==                   ",
"                 ===;77777777777787776767777===                 ",
"              88==>>8888775<<<11:111,,66777777==26              ",
"            887=$>6788858:<<111<11<<,,,,7777777=%266            ",
"          7766==>47784:<3:<<1<<<<,<<,,,,<<<75775%%2677          ",
"         8666%%2777771:==:<<:<<<,<<<,,,,,<<<77576%%,777         ",
"      == 866=*>6777==7:3,,,,1,,,,,,,,,,,:<<==87777==;;7 ==;     ",
"      ;==========*==;7776,,,,,,,,,,,,,,,778;====@========;;     ",
"       ;22;>>>>>>>>>7777877,,,,,,,,,,,777777;;;;;;;;;;;;;       ",
"            6666766677778877777777777777777777777777            ",
"              778777777777777778747774677777777777              ",
"                 877777777778667777767777777777                 ",
"                       868778778768778767                       ",
"                                                                "
};
